<?xml version="1.0" encoding="UTF-8" ?>
<!DOCTYPE svg PUBLIC "-//W3C//DTD SVG 1.1//EN" "http://www.w3.org/Graphics/SVG/1.1/DTD/svg11.dtd" >

<svg xmlns="http://www.w3.org/2000/svg" xmlns:xlink="http://www.w3.org/1999/xlink" version="1.1">

<metadata>
Font name:               EMS Readability
License:                 SIL Open Font License http://scripts.sil.org/OFL
Created by:              Sheldon B. Michaels
SVG font conversion by:  Windell H. Oskay
A derivative of:         Source Sans Pro-Light
Designer:                Paul D. Hunt, Adobe
Link:                    http://www.adobe.com
Google font page:        https://fonts.google.com/specimen/Source+Sans+Pro
</metadata>
<defs>
<font id="EMSReadability" horiz-adv-x="378" >
<font-face
font-family="EMS Readability"
units-per-em="1000"
ascent="800"
descent="-200"
cap-height="500"
x-height="300"
/>
<missing-glyph horiz-adv-x="378" />
<glyph unicode=" " glyph-name="space" horiz-adv-x="378" />
<glyph unicode="!" glyph-name="exclam" horiz-adv-x="280" d="M 195 674 L 195 192 M 173 69.3 L 173 18.9 L 220 18.9 L 220 69.3 L 173 69.3" />
<glyph unicode="&#x22;" glyph-name="quotedbl" horiz-adv-x="381" d="M 117 693 L 120 491 M 255 693 L 261 491" />
<glyph unicode="#" glyph-name="numbersign" horiz-adv-x="501" d="M 202 649 L 123 15.8 M 381 649 L 302 15.8 M 72.5 447 L 450 447 M 53.5 246 L 428 246" />
<glyph unicode="$" glyph-name="dollar" horiz-adv-x="501" d="M 391 580 L 340 624 L 287 636 L 255 639 L 255 747 L 255 639 L 189 627 L 139 580 L 120 526 L 123 460 L 148 413 L 198 375 L 309 318 L 353 284 L 387 249 L 406 192 L 406 145 L 391 85.1 L 337 40.9 L 271 18.9 L 255 18.9 L 255 -85 L 255 18.9 L 205 25.2 L 142 50.4 L 94.5 88.2" />
<glyph unicode="%" glyph-name="percent" horiz-adv-x="828" d="M 192 284 L 239 293 L 277 324 L 302 375 L 315 444 L 318 495 L 302 564 L 277 617 L 246 649 L 208 665 L 167 662 L 120 633 L 91.4 589 L 78.8 536 L 75.6 428 L 85 372 L 107 328 L 139 299 L 164 287 L 192 284 M 633 12.6 L 680 22.1 L 715 56.7 L 743 104 L 753 173 L 756 224 L 743 296 L 718 350 L 687 381 L 646 397 L 605 391 L 561 365 L 529 321 L 520 268 L 513 161 L 526 101 L 548 59.9 L 576 31.5 L 605 15.8 L 633 12.6 M 233 9.45 L 592 671" />
<glyph unicode="&amp;" glyph-name="ampersand" horiz-adv-x="598" d="M 558 22.1 L 485 53.6 L 406 120 L 324 198 L 271 265 L 205 369 L 173 444 L 164 542 L 173 598 L 208 643 L 258 662 L 318 652 L 353 621 L 369 570 L 359 517 L 328 463 L 287 428 L 167 337 L 126 299 L 88.2 249 L 69.3 195 L 78.8 135 L 110 69.3 L 173 31.5 L 252 15.8 L 312 31.5 L 381 72.4 L 432 132 L 476 192 L 510 271 L 536 340" />
<glyph unicode="&apos;" glyph-name="quotesingle" horiz-adv-x="249" d="M 117 693 L 123 491" />
<glyph unicode="(" glyph-name="parenleft" horiz-adv-x="302" d="M 239 -148 L 189 -53.5 L 145 69.3 L 129 145 L 120 255 L 120 359 L 135 450 L 158 539 L 192 633 L 220 687 L 243 718" />
<glyph unicode=")" glyph-name="parenright" horiz-adv-x="302" d="M 63 -151 L 117 -50.4 L 158 56.7 L 176 161 L 189 290 L 173 416 L 161 498 L 139 573 L 101 649 L 63 721" />
<glyph unicode="*" glyph-name="asterisk" horiz-adv-x="422" d="M 139 488 L 208 589 L 321 627 L 208 589 L 208 709 L 208 589 L 94.5 627 L 208 589 L 287 485" />
<glyph unicode="+" glyph-name="plus" horiz-adv-x="501" d="M 249 554 L 249 123 M 56.7 340 L 450 340" />
<glyph unicode="," glyph-name="comma" horiz-adv-x="249" d="M 142 25.2 L 104 25.2 L 104 75.6 L 142 75.6 L 158 18.9 L 154 -28.4 L 135 -69.3 L 110 -94.5 L 81.9 -120" />
<glyph unicode="-" glyph-name="hyphen" horiz-adv-x="328" d="M 56.7 261 L 261 261" />
<glyph unicode="." glyph-name="period" horiz-adv-x="249" d="M 97.6 72.4 L 97.6 22.1 L 148 22.1 L 148 72.4 L 97.6 72.4" />
<glyph unicode="/" glyph-name="slash" horiz-adv-x="381" d="M 44.1 -142 L 343 709" />
<glyph unicode="0" glyph-name="zero" horiz-adv-x="501" d="M 246 18.9 L 306 31.5 L 369 94.5 L 397 161 L 410 236 L 416 340 L 410 438 L 387 532 L 356 592 L 306 630 L 261 646 L 224 643 L 164 608 L 123 551 L 94.5 460 L 85 365 L 81.9 271 L 94.5 183 L 126 94.5 L 164 53.6 L 202 22.1 L 246 18.9" />
<glyph unicode="1" glyph-name="one" horiz-adv-x="504" d="M 265 598 L 161 595 L 268 636 L 268 31.5 L 110 31.5 L 422 31.5" />
<glyph unicode="2" glyph-name="two" horiz-adv-x="504" d="M 75.6 558 L 117 598 L 167 630 L 230 646 L 284 636 L 340 608 L 375 561 L 391 491 L 387 432 L 356 359 L 299 277 L 230 192 L 167 126 L 110 63 L 81.9 31.5 L 438 31.5" />
<glyph unicode="3" glyph-name="three" horiz-adv-x="498" d="M 88.2 576 L 139 614 L 205 643 L 258 643 L 315 627 L 362 589 L 384 539 L 394 479 L 378 425 L 324 384 L 265 353 L 214 343 L 176 343 L 224 343 L 274 337 L 324 318 L 378 277 L 403 239 L 413 195 L 410 148 L 400 110 L 369 66.1 L 324 37.8 L 268 22.1 L 208 22.1 L 151 37.8 L 94.5 69.3 L 59.9 101" />
<glyph unicode="4" glyph-name="four" horiz-adv-x="504" d="M 340 15.8 L 340 630 L 47.2 220 L 444 220" />
<glyph unicode="5" glyph-name="five" horiz-adv-x="501" d="M 59.9 97.6 L 101 63 L 145 37.8 L 195 18.9 L 243 15.8 L 315 34.6 L 365 75.6 L 406 135 L 422 205 L 413 287 L 378 350 L 306 391 L 233 397 L 180 384 L 126 356 L 120 365 L 139 630 L 397 630" />
<glyph unicode="6" glyph-name="six" horiz-adv-x="498" d="M 85 265 L 132 315 L 189 359 L 246 378 L 309 378 L 356 356 L 391 324 L 416 265 L 425 195 L 410 123 L 375 63 L 321 25.2 L 258 15.8 L 202 34.6 L 151 72.4 L 110 135 L 91.4 224 L 85 318 L 97.6 438 L 120 510 L 148 567 L 195 614 L 255 639 L 315 643 L 372 624 L 413 589" />
<glyph unicode="7" glyph-name="seven" horiz-adv-x="504" d="M 224 18.9 L 236 186 L 261 306 L 296 410 L 340 491 L 387 567 L 435 633 L 72.5 633" />
<glyph unicode="8" glyph-name="eight" horiz-adv-x="501" d="M 296 321 L 359 372 L 397 428 L 406 482 L 403 539 L 362 605 L 299 639 L 249 643 L 173 621 L 123 570 L 110 513 L 126 435 L 176 387 L 265 340 L 346 296 L 400 255 L 425 198 L 419 129 L 400 78.8 L 340 31.5 L 265 15.8 L 205 25.2 L 142 53.6 L 94.5 104 L 78.8 158 L 85 236 L 135 306 L 176 334 L 230 359" />
<glyph unicode="9" glyph-name="nine" horiz-adv-x="501" d="M 88.2 75.6 L 123 40.9 L 180 22.1 L 239 15.8 L 302 47.2 L 362 107 L 397 198 L 413 309 L 413 413 L 391 510 L 353 586 L 293 630 L 224 643 L 151 617 L 107 573 L 81.9 517 L 75.6 460 L 78.8 397 L 113 331 L 176 290 L 252 280 L 334 315 L 384 362 L 416 403" />
<glyph unicode=":" glyph-name="colon" horiz-adv-x="249" d="M 97.6 454 L 97.6 406 L 145 406 L 145 454 L 97.6 454 M 97.6 72.4 L 97.6 25.2 L 145 25.2 L 145 72.4 L 97.6 72.4" />
<glyph unicode=";" glyph-name="semicolon" horiz-adv-x="246" d="M 97.6 454 L 97.6 403 L 148 403 L 148 454 L 97.6 454 M 142 25.2 L 104 25.2 L 104 75.6 L 142 75.6 L 158 18.9 L 154 -28.4 L 139 -69.3 L 110 -94.5 L 81.9 -120" />
<glyph unicode="&#x3c;" glyph-name="less" horiz-adv-x="504" d="M 450 183 L 53.5 343 L 450 504" />
<glyph unicode="=" glyph-name="equal" horiz-adv-x="504" d="M 50.4 441 L 450 441 M 50.4 239 L 450 239" />
<glyph unicode="&#x3e;" glyph-name="greater" horiz-adv-x="498" d="M 56.7 183 L 450 346 L 56.7 504" />
<glyph unicode="?" glyph-name="question" horiz-adv-x="428" d="M 170 72.4 L 170 22.1 L 220 22.1 L 220 72.4 L 170 72.4 M 189 202 L 195 261 L 220 324 L 290 419 L 331 485 L 340 542 L 328 598 L 296 643 L 258 668 L 205 674 L 151 665 L 107 643 L 69.3 608" />
<glyph unicode="@" glyph-name="at" horiz-adv-x="832" d="M 545 413 L 504 173 L 454 123 L 403 97.6 L 343 94.5 L 290 135 L 274 202 L 293 302 L 346 381 L 419 419 L 482 406 L 513 378 L 532 340 L 504 167 L 510 129 L 564 88.2 L 636 94.5 L 696 145 L 737 211 L 750 293 L 747 378 L 721 469 L 677 536 L 621 586 L 529 617 L 432 624 L 346 608 L 249 558 L 180 491 L 132 419 L 94.5 324 L 81.9 243 L 81.9 173 L 104 78.8 L 142 3.15 L 220 -66.1 L 290 -97.6 L 387 -117 L 479 -113 L 564 -69.3" />

<glyph unicode="A" glyph-name="A" horiz-adv-x="700" d="M 162 443 L 208 464 L 253 458 M 206 461 L 215 369 M 243 430 L 264 428 M 251 413 L 255 360 M 290 353 L 291 458 L 335 340 L 338 449 M 358 538 L 363 393 L 369 348 M 364 392 L 447 492 M 462 465 L 431 445 L 435 372 L 477 384 M 468 425 L 434 412 M 378 407 L 414 365 M 495 393 L 489 472 L 528 462 L 503 433 L 538 400 M 158 273 L 248 338 L 300 340 M 249 340 L 266 240 M 291 121 L 297 314 L 327 319 L 366 187 M 298 282 L 336 290 M 368 266 L 361 331 L 407 263 L 407 343 M 432 346 L 427 243 M 432 286 L 475 337 M 448 303 L 509 235" />
<glyph unicode="B" glyph-name="B" horiz-adv-x="700" d="M 314 571 L 194 485 L 160 419 L 150 354 L 162 273 L 188 215 L 220 172 L 273 134 L 321 116 L 380 108 L 443 124 L 498 153 L 553 203 L 564 222 L 556 230 L 476 249 L 437 266 L 409 294 L 422 316 L 423 337 L 414 351 L 386 346 L 349 362 L 324 413 L 309 479 L 311 529 L 320 555 L 321 566 L 313 570 M 258 354 L 274 335 L 292 330 L 307 333 L 317 342 L 318 360 M 349 253 L 367 243 L 382 241 L 390 244 L 398 251 L 400 264 L 400 274 M 475 386 L 501 397 L 510 410 L 518 425 L 520 452 L 531 420 L 543 407 L 559 400 L 578 397 L 546 382 L 534 363 L 531 338 L 529 319 L 521 354 L 509 375 L 491 382 L 459 386 M 386 476 L 408 473 L 419 465 L 422 441 L 426 465 L 436 474 L 462 478 L 447 481 L 430 488 L 424 499 L 420 518 L 418 489 L 411 480 L 378 475 M 486 528 L 518 541 L 526 557 L 528 597 L 534 554 L 548 541 L 582 533 L 556 526 L 539 518 L 533 474 L 527 507 L 508 524 L 472 529" />
<glyph unicode="C" glyph-name="C" horiz-adv-x="700" d="M 264 569 L 255 535 L 267 473 L 331 295 L 369 298 L 398 284 L 414 255 L 418 188 L 441 155 L 474 146 L 507 151 L 535 180 L 534 215 L 518 239 L 499 255 L 475 261 L 448 254 L 427 253 L 409 265 L 263 560 M 367 434 L 398 370 L 426 473 L 439 524 L 442 553 L 434 570 L 364 430 M 296 297 L 307 270 L 295 226 L 277 179 L 242 142 L 189 153 L 160 195 L 168 232 L 199 261 L 226 263 L 259 252 L 275 254 L 287 268 L 298 299 L 305 269" />
<glyph unicode="D" glyph-name="D" horiz-adv-x="700" d="M 31 412 L 34 425 L 233 459 L 248 469 L 341 648 L 356 646 L 442 477 L 459 460 L 660 427 L 663 419 L 526 272 L 520 256 L 549 57 L 539 49 L 360 137 L 342 135 L 160 49 L 154 54 L 179 252 L 176 266 L 32 412 L 35 421" />
<glyph unicode="E" glyph-name="E" horiz-adv-x="700" d="M 35 37 L 96 145 L 92 158 L 120 188 L 130 264 L 306 437 L 371 377 L 450 454 L 396 515 L 438 556 L 565 427 L 535 389 L 511 340 L 512 308 L 521 286 L 547 263 L 652 157 L 661 141 L 660 124 L 654 87 L 645 33 L 548 33 L 545 79 L 535 121 L 512 161 L 485 190 L 449 207 L 412 207 L 373 200 L 322 177 L 288 156 L 261 131 L 188 122 L 152 90 L 89 155 M 37 38 L 141 96 M 253 177 L 217 33 L 173 35 M 380 199 L 396 161 L 398 135 L 397 113 L 392 100 L 432 110 L 463 131 L 486 149 L 503 172 M 248 277 L 285 241 M 281 312 L 319 274 M 314 343 L 352 304 M 325 416 L 409 499 M 454 543 L 565 656 L 577 661 L 587 657 L 615 635 L 616 625 L 611 612 L 495 497" />
<glyph unicode="F" glyph-name="F" horiz-adv-x="700" d="M 192 353 L 193 438 L 196 447 L 204 450 L 212 452 L 451 449 L 468 447 L 492 436 L 510 418 L 522 399 L 527 381 L 527 370 L 526 166 L 521 157 L 513 152 L 503 150 L 188 152 L 181 155 L 174 161 L 171 170 L 171 232 L 409 233 L 420 237 L 425 242 L 428 251 L 426 347 L 423 358 L 416 365 L 406 369 L 398 371 L 282 371 L 275 368 L 270 363 L 269 352 L 264 345 L 257 341 L 206 343 L 196 346 L 192 356 M 217 343 L 220 322 L 245 320 L 243 340 M 231 321 L 231 271 M 181 233 L 183 251 L 279 251 L 280 233 M 170 179 L 525 179 M 503 252 L 461 252 M 460 276 L 503 276 M 467 345 L 467 360 L 456 365 L 448 374 L 448 389 L 452 398 L 464 401 L 476 401 L 485 394 L 490 385 L 489 375 L 482 366 L 474 360 L 466 360 M 452 450 L 450 468 M 364 450 L 363 472 L 273 473 L 273 450" />
<glyph unicode="G" glyph-name="G" horiz-adv-x="700" d="M 349 100 L 83 366 L 67 397 L 57 436 L 59 480 L 75 531 L 110 568 L 144 588 L 178 596 L 215 598 L 244 594 L 270 582 L 304 553 L 351 511 L 405 567 L 435 586 L 481 601 L 520 598 L 567 579 L 591 560 L 616 534 L 632 504 L 640 471 L 641 443 L 632 407 L 625 382 L 607 356 L 348 98" />
<glyph unicode="H" glyph-name="H" horiz-adv-x="700" d="M 289 470 L 196 467 L 59 360 L 196 345 L 239 415 L 313 494 L 383 555 L 448 601 L 504 625 L 551 636 L 600 642 L 644 639 L 645 588 L 638 545 L 626 509 L 610 470 L 596 442 L 548 372 L 505 321 L 437 259 L 391 225 L 345 199 L 359 63 L 465 199 L 470 288 M 598 449 L 444 599 M 459 483 L 476 468 L 485 446 L 479 424 L 465 406 L 442 398 L 416 407 L 402 431 L 403 463 L 419 480 L 437 486 L 462 482 M 414 245 L 243 418 M 198 345 L 344 198 M 287 251 L 281 216 L 270 196 L 244 177 L 132 134 L 170 222 L 195 263 L 215 275 L 232 282 L 259 284" />
<glyph unicode="I" glyph-name="I" horiz-adv-x="700" d="M 374 347 L 582 556 L 619 568 L 657 633 L 631 661 L 568 622 L 557 586 L 344 378 M 314 404 L 402 316 L 378 286 L 343 280 L 326 268 L 316 252 L 309 233 L 301 208 L 291 189 L 149 51 L 133 43 L 114 41 L 100 47 L 45 102 L 38 123 L 40 139 L 43 146 L 64 168 L 186 289 L 206 298 L 236 305 L 254 319 L 268 332 L 276 349 L 282 370 L 292 384 L 314 404 M 183 289 L 218 255 L 138 173 L 130 157 L 133 145 L 143 135 L 156 134 L 169 136 L 176 144 L 253 218 L 287 184" />
<glyph unicode="J" glyph-name="J" horiz-adv-x="700" d="M 28 104 L 20 84 L 24 64 L 35 53 L 56 48 L 74 47 L 91 61 L 471 445 L 413 499 L 30 103 M 413 497 L 406 510 L 438 550 L 443 563 L 438 572 L 398 599 L 285 653 L 392 657 L 457 647 L 496 633 L 526 614 L 596 543 L 586 532 L 583 519 L 587 507 L 597 497 L 605 487 L 657 486 L 687 452 L 593 358 L 558 389 L 556 443 L 533 464 L 526 465 L 515 462 L 487 432 L 472 442" />
<glyph unicode="K" glyph-name="K" horiz-adv-x="700" d="M 45 197 L 57 228 L 76 248 L 108 267 L 146 292 L 183 325 L 208 359 L 223 394 L 236 403 L 254 404 L 277 374 L 283 341 L 280 309 L 256 277 L 211 254 L 154 202 L 114 169 L 79 161 L 54 180 L 47 196 M 284 341 L 315 354 L 340 375 L 365 396 L 376 410 L 396 404 L 413 407 L 429 418 L 442 437 L 478 438 L 514 449 L 542 464 L 559 488 L 562 499 L 536 500 L 522 489 L 498 488 L 483 496 L 436 490 L 442 527 L 478 528 L 488 545 L 518 545 L 533 534 L 561 539 L 535 569 L 498 581 L 458 583 L 413 578 L 376 558 L 353 536 L 345 503 L 346 476 L 346 468 L 322 438 L 301 418 L 281 402 L 264 393 M 347 471 L 364 490 L 381 499 L 406 502 L 424 498 L 436 492 M 371 463 L 380 473 L 400 476 L 412 469 L 415 455 L 409 440 L 391 435 L 378 441 L 374 452 L 371 463 M 369 400 L 370 359 L 379 345 L 392 345 L 401 351 L 406 361 L 405 404 M 434 424 L 435 363 L 425 336 L 409 307 L 382 273 M 338 374 L 339 348 L 334 320 L 329 288 L 359 285 L 383 272 L 395 256 L 407 236 L 401 225 L 383 219 L 352 209 L 308 173 L 264 118 L 238 78 L 209 61 L 181 61 L 158 78 L 148 102 L 158 128 L 186 151 L 230 187 L 264 233 L 284 264 L 311 283 L 330 288" />
<glyph unicode="L" glyph-name="L" horiz-adv-x="700" d="M 341 416 L 550 564 L 569 567 L 580 560 L 588 546 L 588 531 L 585 517 L 574 506 L 630 417 L 655 418 L 672 406 L 676 391 L 674 376 L 665 366 L 531 268 L 517 266 L 433 274 L 419 282 L 344 405 L 344 418 L 50 414 L 33 409 L 27 396 L 23 371 L 28 350 L 36 336 L 46 333 L 385 338 M 534 343 L 474 440 L 468 458 L 475 469 L 499 482 L 517 481 L 535 463 L 583 373 L 581 355 L 571 344 L 556 337 L 544 339 L 534 345 M 30 343 L 31 192 L 38 172 L 58 139 L 75 170 L 89 139 L 102 169 L 117 142 L 126 168 L 139 141 L 153 167 L 163 140 L 175 168 L 193 140 L 202 168 L 215 140 L 226 166 L 240 142 L 252 167 L 264 138 L 276 165 L 285 139 L 299 165 L 307 141 L 322 167 L 334 141 L 346 168 L 356 141 L 376 167 L 383 143 L 401 169 L 412 142 L 425 168 L 438 141 L 450 168 L 461 142 L 472 168 L 485 141 L 494 161 L 503 199 L 505 240 L 503 268" />
<glyph unicode="M" glyph-name="M" horiz-adv-x="700" d="M 222 362 L 79 220 L 116 186 L 260 325 L 210 374 L 210 382 L 237 411 L 249 410 L 393 271 L 392 262 L 361 232 L 260 326 M 257 404 L 388 529 M 299 363 L 425 488 L 374 542 L 416 581 L 438 580 L 544 475 L 541 401 L 529 391 L 424 491 M 389 375 L 392 387 L 405 391 L 467 331 L 466 317 L 449 312 L 389 374 M 397 365 L 389 348 L 416 317 L 441 320 M 401 333 L 352 315 M 410 322 L 386 282 L 373 322 M 318 273 L 216 166 L 198 162 L 107 74 L 105 60 L 128 37 L 148 35 L 229 122 L 234 139 L 212 163 M 234 139 L 344 247 M 246 150 L 234 185 M 260 164 L 253 202 M 281 188 L 267 223 M 302 206 L 287 239 M 322 227 L 307 261" />
<glyph unicode="N" glyph-name="N" horiz-adv-x="700" d="M 21 269 L 312 601 L 324 607 L 334 604 L 342 597 L 632 264 L 21 268 M 208 345 L 325 481 L 440 345 L 209 345 M 51 302 L 66 284 M 67 320 L 72 314 M 81 336 L 98 319 M 96 356 L 103 347 M 112 372 L 129 349 M 124 390 L 133 379 M 143 406 L 160 384 M 154 423 L 165 413 M 172 439 L 189 421 M 187 459 L 193 450 M 202 475 L 219 456 M 218 493 L 227 483 M 234 510 L 250 491 M 249 528 L 259 519 M 267 549 L 283 529 M 283 567 L 291 558 M 356 582 L 332 563 M 372 564 L 364 554 M 391 541 L 364 520 M 404 526 L 392 515 M 421 507 L 398 485 M 435 491 L 423 484 M 448 478 L 423 455 M 461 461 L 452 451 M 476 442 L 451 422 M 491 426 L 480 417 M 507 406 L 489 388 M 522 390 L 512 382 M 537 374 L 513 352 M 552 356 L 544 349 M 567 339 L 546 318 M 581 322 L 571 313 M 597 304 L 576 285" />
<glyph unicode="O" glyph-name="O" horiz-adv-x="700" d="M 125 62 L 124 52 L 129 47 L 139 46 L 444 366 L 442 376 L 435 380 L 426 378 L 125 62 M 150 131 L 223 210 L 208 236 L 205 278 L 214 310 L 236 332 L 257 340 L 284 341 L 307 331 L 325 316 L 385 382 L 357 404 L 317 419 L 270 424 L 213 404 L 176 378 L 152 350 L 133 311 L 123 270 L 121 235 L 134 196 L 154 160 L 139 143 L 150 133 M 99 288 L 93 342 L 87 422 L 95 482 L 109 512 L 125 526 L 140 531 L 155 527 L 167 520 L 179 513 L 199 513 L 241 522 L 274 533 L 310 533 L 317 532 L 407 622 L 420 622 L 529 556 L 532 545 L 529 532 L 401 395 L 391 432 L 367 446 L 325 435 L 342 454 L 325 474 L 301 496 L 300 512 L 317 532 M 148 388 L 145 427 L 157 453 L 183 471 L 219 472 L 251 464 L 283 442 M 152 442 L 176 442 L 191 432 L 198 437 L 200 470 M 392 557 L 397 571 L 408 583 L 496 535 L 492 523 L 452 484 L 442 483 L 391 546 L 391 556 M 393 562 L 426 546 L 445 564 M 272 245 L 265 255 L 268 268 L 280 274 L 293 269 L 298 255 L 288 245 L 274 244 M 268 224 L 250 236 L 246 258 L 253 280 L 272 291 L 292 291 L 308 281 L 314 269 M 239 148 L 246 138 L 241 126 L 230 111 L 272 105 L 269 124 L 276 137 L 289 139 L 295 130 L 293 118 L 289 107 L 334 115 L 322 129 L 322 146 L 333 151 L 341 140 L 345 118 L 381 144 L 365 157 L 366 177 L 378 176 L 384 165 L 394 152 L 416 194 L 394 199 L 388 213 L 395 223 L 409 221 L 420 208 L 432 253 L 403 248 L 395 256 L 398 267 L 409 270 L 431 265 L 424 311 L 399 295 L 387 295 L 382 301 M 369 336 L 394 361 M 184 135 L 209 162" />
<glyph unicode="P" glyph-name="P" horiz-adv-x="700" d="M 81 494 L 102 464 L 128 441 L 150 428 L 182 412 L 202 407 L 207 407 M 168 416 L 177 443 L 189 463 L 205 483 L 239 500 L 275 513 L 313 518 L 348 518 L 358 518 L 362 486 L 371 465 L 383 443 L 455 458 L 484 473 L 516 495 L 535 523 L 544 549 L 539 576 L 526 608 L 505 621 L 472 631 L 449 628 L 419 621 L 397 606 L 377 586 L 365 562 L 359 533 L 359 520 M 295 517 L 278 542 L 271 566 L 272 594 L 281 613 L 296 629 L 314 638 L 339 644 L 365 645 L 384 638 L 396 629 L 406 613 M 347 607 L 333 587 L 326 574 L 320 564 L 315 550 M 417 538 L 490 579 M 435 590 L 454 558 L 469 527 M 478 471 L 520 440 L 532 424 L 541 409 L 548 395 L 547 379 L 545 360 L 539 346 L 527 328 L 510 312 L 479 298 L 410 272 L 361 267 L 306 271 L 263 280 L 215 302 L 185 330 L 167 364 L 162 388 L 166 417 M 194 471 L 177 486 L 164 500 L 155 516 M 265 508 L 272 472 L 271 426 L 264 375 L 253 339 L 242 313 L 232 295 M 377 451 L 379 418 L 375 387 L 366 344 L 350 305 L 335 269 M 458 290 L 468 342 L 474 385 L 473 421 L 467 463 M 547 383 L 607 362 L 548 359" />
<glyph unicode="Q" glyph-name="Q" horiz-adv-x="700" d="M 347 668 L 408 663 L 475 641 L 522 616 L 573 578 L 615 525 L 649 457 L 663 379 L 666 306 L 641 217 L 590 140 L 524 84 L 422 39 L 337 30 L 283 38 L 198 71 L 122 125 L 72 194 L 35 295 L 38 369 L 54 467 L 91 530 L 128 578 L 176 615 L 211 637 L 269 658 L 307 667 L 347 670 M 472 643 L 454 602 L 485 585 L 518 562 L 544 537 L 560 517 L 579 492 L 591 473 L 596 460 L 638 481 M 599 507 L 595 495 L 603 483 L 616 484 L 619 495 L 611 505 L 601 505 M 559 552 L 567 563 L 559 575 L 548 573 L 543 563 L 550 552 L 558 553 M 487 600 L 497 612 L 491 622 L 481 623 L 474 615 L 472 607 L 485 601 M 207 616 L 197 613 L 193 603 L 205 594 L 215 598 L 220 609 L 208 616 M 213 637 L 227 616 L 227 595 L 217 583 L 201 581 L 187 589 L 175 616 M 90 529 L 116 515 L 123 501 L 113 483 L 93 478 L 77 485 L 68 490 M 92 507 L 104 507 L 109 502 L 105 491 L 93 488 L 86 496 L 92 505 M 40 374 L 65 374 L 80 368 L 83 355 L 81 343 L 70 332 L 56 332 L 37 332 M 51 348 L 53 359 L 62 363 L 70 359 L 71 354 L 64 343 L 55 344 L 51 349 M 87 405 L 89 415 L 247 488 L 260 482 L 276 451 L 273 439 L 114 368 L 103 369 L 87 405 M 159 424 L 164 434 L 173 433 L 179 424 L 172 412 L 163 412 L 158 421 M 189 435 L 193 444 L 203 444 L 209 436 L 204 427 L 192 425 L 188 432 L 189 438 M 102 290 L 195 335 L 158 231 L 146 264 L 115 231 L 103 244 L 130 277 L 103 285 L 104 289 M 139 291 L 154 294 L 163 287 L 159 274 L 148 269 L 139 274 L 140 288 M 160 309 L 169 314 L 178 311 L 180 300 L 169 292 L 162 295 L 161 302 L 162 312 M 94 169 L 120 189 L 136 191 L 148 182 L 152 170 L 152 158 L 137 146 L 119 132 M 117 167 L 124 176 L 133 176 L 138 167 L 133 158 L 121 156 L 116 164 M 451 353 L 501 391 L 503 367 L 531 368 L 536 362 L 536 339 L 530 335 L 502 337 L 504 318 L 498 314 L 452 352 M 538 402 L 519 404 L 555 454 L 592 407 L 574 402 L 570 374 L 541 376 L 537 400 M 578 367 L 605 369 L 607 391 L 657 353 L 606 314 L 606 336 L 577 337 L 577 367 M 540 332 L 570 331 L 573 300 L 596 298 L 553 246 L 515 298 L 538 302 L 540 331 M 549 431 L 557 432 L 565 427 L 565 417 L 557 412 L 550 417 L 548 423 L 550 428 M 552 400 L 561 400 L 566 391 L 561 383 L 552 383 L 548 392 L 552 400 M 588 356 L 595 361 L 604 358 L 606 351 L 599 343 L 591 346 L 589 355 M 630 358 L 632 346 L 625 344 L 619 351 L 620 357 L 628 360 L 633 356 M 523 355 L 521 344 L 510 343 L 505 348 L 507 358 L 517 362 L 521 355 M 477 357 L 486 361 L 492 355 L 493 346 L 485 342 L 475 346 L 478 356 M 560 318 L 560 307 L 551 304 L 546 310 L 547 319 L 554 321 L 561 317 M 561 288 L 565 280 L 561 269 L 550 269 L 542 280 L 547 289 L 560 290 L 564 286 M 573 176 L 584 173 L 588 164 L 580 160 L 570 157 L 567 169 L 574 179 M 608 172 L 585 190 L 574 189 L 562 180 L 557 167 L 560 156 L 571 143 L 582 136 M 424 42 L 416 72 L 420 87 L 431 95 L 443 95 L 453 90 L 461 73 L 463 57 M 429 69 L 433 80 L 439 81 L 446 75 L 446 66 L 438 63 L 429 68 M 266 46 L 277 80 L 267 97 L 255 100 L 245 97 L 233 88 L 225 63 M 246 79 L 251 85 L 258 83 L 261 75 L 256 68 L 246 69 L 246 79 M 293 453 L 324 468 L 349 470 L 388 465 L 421 446 L 450 413 L 463 379 L 463 370 L 463 332 L 446 290 L 419 265 L 388 245 L 354 237 L 327 240 L 298 250 L 273 268 L 252 291 L 239 329 L 236 362 L 242 393 L 253 412 M 296 525 L 297 556 L 310 559 M 297 541 L 307 542 M 314 527 L 314 558 L 325 553 L 324 544 L 316 543 L 325 538 L 326 529 M 331 527 L 331 557 M 350 553 L 345 558 L 339 556 L 338 547 L 351 533 L 349 528 L 340 529 L 336 536 M 359 528 L 360 558 L 368 556 L 372 548 L 368 544 L 360 541 L 371 538 L 372 533 L 369 528 L 358 528 M 389 529 L 380 530 L 378 559 L 389 558 M 387 543 L 379 543 M 406 557 L 397 557 L 395 529 L 408 528 M 402 544 L 397 544 M 316 155 L 324 168 L 335 175 L 348 174 L 352 189 L 363 194 L 377 192 L 378 180 L 371 169 L 351 158 L 350 172 M 368 167 L 376 158 L 379 150 L 389 150 M 377 152 L 370 141 L 352 135 L 333 134 L 319 143 L 316 154 M 306 171 L 324 155 M 320 177 L 329 165 M 336 174 L 335 155 L 330 138 M 350 157 L 350 145 L 345 136 M 363 141 L 367 151 L 367 166 M 337 175 L 335 192 L 344 199 L 350 197 L 356 191 M 355 176 L 370 183 M 359 187 L 366 174 M 279 385 L 297 395 L 310 393 M 299 394 L 298 363 M 311 383 L 318 382 M 315 375 L 315 355 M 329 353 L 330 391 L 347 349 L 345 386 M 351 425 L 356 351 M 356 368 L 384 403 M 360 373 L 373 358 M 392 394 L 381 384 L 381 356 L 397 363 M 383 375 L 394 380 M 403 366 L 401 393 L 417 392 L 405 381 L 419 371 M 282 324 L 314 348 L 330 348 M 314 349 L 321 313 M 326 267 L 332 338 L 345 341 L 358 292 M 333 327 L 347 331 M 357 322 L 358 344 L 371 323 L 371 347 M 379 350 L 379 311 M 398 347 L 382 327 M 387 334 L 409 310" />  
<glyph unicode="R" glyph-name="R" horiz-adv-x="700" d="M 12 57 L 666 57 L 664 6 L 11 10 L 13 56 M 45 57 L 70 101 L 220 101 L 246 58 M 221 98 L 220 155 L 201 187 L 175 204 L 147 212 L 115 208 L 93 194 L 73 168 L 70 146 L 70 101 M 126 159 L 137 174 L 150 178 L 166 166 L 170 153 L 157 132 L 138 130 L 123 144 L 125 158 M 109 205 L 276 377 L 300 381 L 330 372 L 351 354 L 358 328 L 354 300 L 343 276 L 216 160 M 275 330 L 278 309 L 288 297 L 312 300 L 321 314 L 313 336 L 297 345 L 283 340 L 275 330 M 237 337 L 169 411 M 303 380 L 230 457 L 205 429 L 179 414 L 167 411 L 138 416 L 116 435 L 106 466 L 107 491 L 120 511 L 282 679 L 316 692 L 344 686 L 368 668 L 379 641 L 374 606 L 357 584 L 230 456 M 166 502 L 150 495 L 141 482 L 144 464 L 156 453 L 169 451 L 188 460 L 191 474 L 183 488 L 176 497 L 166 501 M 291 629 L 296 614 L 309 604 L 323 605 L 338 612 L 341 629 L 332 648 L 318 653 L 306 649 L 306 649 L 298 643 L 290 628 M 370 668 L 465 630 M 377 621 L 452 588 L 450 605 L 458 622 L 464 630 L 482 635 L 504 633 L 520 621 L 526 601 L 517 579 L 498 563 L 475 561 L 459 572 L 452 589 M 484 561 L 527 479 M 521 586 L 560 498 L 586 486 L 596 468 L 596 449 L 586 428 L 569 422 L 551 424 L 527 436 L 521 465 L 528 480 L 543 494 L 559 499 M 589 482 L 667 460 L 691 368 L 664 355 L 625 428 L 589 436 M 568 423 L 553 388 L 588 315 L 561 298 L 503 371 L 525 441" />
<glyph unicode="S" glyph-name="S" horiz-adv-x="700" d="M 287 397 L 175 634 L 321 434 L 320 530 L 359 441 L 417 655 L 415 427 L 459 515 L 443 411 L 556 501 L 461 356 L 641 388 L 475 304 L 541 275 L 463 265 L 615 144 L 429 225 L 440 155 L 393 199 L 394 39 L 352 191 L 310 136 L 313 193 L 147 79 L 270 226 L 208 214 L 252 254 L 78 215 L 252 308 L 48 365 L 264 361 L 168 472 L 286 399 M 303 358 L 349 330 L 351 382 L 367 343 L 383 372 L 375 322 L 401 366 L 390 318 L 425 315 L 388 304 L 431 282 L 387 280 L 397 242 L 375 275 L 370 236 L 361 269 L 350 235 L 348 275 L 307 266 L 356 304 L 301 303 L 339 314 L 300 325 L 338 321 L 305 359" />
<glyph unicode="T" glyph-name="T" horiz-adv-x="700" d="M 299 587 L 311 578 L 325 573 L 353 573 L 377 576 L 393 581 L 400 587 L 399 610 L 398 626 L 380 634 L 363 637 L 351 637 L 332 635 L 309 630 L 300 627 L 300 586 M 299 619 L 316 609 L 344 602 L 369 606 L 389 612 L 398 623 M 298 615 L 276 602 L 271 589 L 273 568 L 290 555 L 316 544 L 345 541 L 377 547 L 411 560 L 423 570 L 428 584 L 419 602 L 407 610 L 400 614 M 273 571 L 270 96 L 298 72 L 323 66 L 354 65 L 382 71 L 403 80 L 422 95 L 428 103 L 429 306 M 428 327 L 428 355 M 428 392 L 426 582 M 274 430 L 298 409 L 320 402 L 346 398 L 369 398 L 392 405 L 413 414 L 427 429 M 328 497 L 372 497 M 350 521 L 349 471 M 330 107 L 371 105" />
<glyph unicode="U" glyph-name="U" horiz-adv-x="700" d="M 241 602 L 240 657 L 305 655 L 308 601 M 219 571 L 220 602 L 328 602 L 331 568 M 164 515 L 164 536 L 174 552 L 188 564 L 210 571 L 346 569 L 372 555 L 379 541 L 383 512 M 132 515 L 414 515 M 153 513 L 131 470 L 133 47 L 417 47 L 414 470 L 394 514 M 219 391 L 225 412 L 235 425 L 250 436 L 277 440 L 294 434 L 315 420 L 325 405 L 331 382 L 328 166 L 307 127 L 267 114 L 240 125 L 225 141 L 218 167 L 219 390 M 272 364 L 271 202 M 389 656 L 576 693 M 386 624 L 488 623 M 526 623 L 577 623 M 388 591 L 574 557" />
<glyph unicode="V" glyph-name="V" horiz-adv-x="700" d="M 166 397 L 174 525 L 190 576 L 200 592 L 230 604 L 472 611 L 502 595 L 511 573 L 512 525 L 502 395 L 487 371 L 458 364 L 192 365 L 168 380 L 167 398 M 133 395 L 130 462 L 134 521 L 148 570 L 167 605 L 211 629 L 262 642 L 495 635 L 548 618 L 578 580 L 596 536 L 593 468 L 580 395 L 556 350 L 533 328 L 410 315 L 319 318 L 230 328 L 157 347 L 138 379 L 133 396 M 210 499 L 254 535 L 298 495 M 389 493 L 430 532 L 464 493 M 284 416 L 310 397 L 332 394 L 352 393 L 375 398 L 387 403 L 397 411 M 302 319 L 284 267 L 283 232 L 292 210 L 325 191 L 354 186 L 394 187 L 428 196 L 440 210 L 444 246 L 436 278 L 420 315 M 292 300 L 248 281 L 231 260 L 222 242 M 209 245 L 273 237 L 274 220 L 208 208 L 210 245 M 217 210 L 220 193 L 229 183 L 242 171 L 254 168 L 266 166 L 265 189 L 252 199 L 269 197 L 270 208 L 265 219 M 265 240 L 282 264 M 427 310 L 458 300 L 485 297 L 505 299 M 499 244 L 504 309 L 521 312 L 558 263 L 500 247 M 501 261 L 477 258 L 460 263 L 437 272 M 526 307 L 550 317 L 551 305 L 556 319 L 589 328 L 583 305 L 576 284 L 565 274 L 557 269 M 307 199 L 302 179 L 329 173 L 332 191 M 391 187 L 392 172 L 429 181 L 417 193 M 427 180 L 444 163 L 452 138 L 454 125 L 474 115 L 482 89 L 472 80 L 462 78 L 361 83 L 360 124 L 364 151 L 380 166 L 393 171 M 361 88 L 379 107 L 397 120 L 417 127 L 436 127 L 455 126 M 300 177 L 284 171 L 270 147 L 267 121 L 245 109 L 238 94 L 245 80 L 270 79 L 350 80 L 360 86 L 339 110 L 318 122 L 286 127 L 265 120 M 331 174 L 344 161 L 353 144 L 359 126" />
<glyph unicode="W" glyph-name="W" horiz-adv-x="700" d="M 165 535 L 182 511 L 203 464 L 214 426 L 221 381 L 221 364 M 142 365 L 281 367 L 282 419 L 337 418 L 410 417 L 434 407 L 448 397 L 471 362 M 338 416 L 334 371 L 339 364 L 349 361 L 549 363 L 561 352 L 561 304 L 544 280 M 545 282 L 558 261 L 558 229 L 545 198 L 516 174 L 481 166 L 442 184 L 420 214 L 419 250 L 430 276 L 452 296 L 472 307 L 507 305 L 527 297 L 545 281 M 493 259 L 508 246 L 507 233 L 496 220 L 484 218 L 473 227 L 468 243 L 474 256 L 493 259 M 418 251 L 277 253 L 279 228 L 270 207 L 256 188 L 232 173 L 201 169 L 176 182 L 150 202 L 142 231 L 143 258 L 156 281 L 172 296 L 202 303 L 225 303 L 252 292 L 270 274 L 277 251 M 213 259 L 226 250 L 230 235 L 221 223 L 200 217 L 189 233 L 190 252 L 201 260 L 213 259 M 156 281 L 142 296 L 138 314 L 141 365" />
<glyph unicode="X" glyph-name="X" horiz-adv-x="700" d="M 351 687 L 432 679 L 472 657 L 519 612 L 546 558 L 557 515 L 553 165 L 530 94 L 495 54 L 430 21 L 357 10 L 261 24 L 207 54 L 168 103 L 147 164 L 144 197 L 146 533 L 162 585 L 190 630 L 221 654 L 277 680 L 324 687 L 351 687 L 350 584 L 373 580 L 385 568 L 390 558 L 392 536 L 389 471 L 381 457 L 367 446 L 351 444 L 329 450 L 317 459 L 310 474 L 310 556 L 315 571 L 329 581 L 350 585 M 350 443 L 350 337" />
<glyph unicode="Y" glyph-name="Y" horiz-adv-x="700" d="M 131 168 L 222 127 L 252 144 L 272 170 L 283 191 L 292 225 L 295 257 L 289 287 L 287 346 L 293 389 L 304 427 L 322 465 L 340 488 L 361 511 L 391 529 L 414 540 L 445 546 L 480 545 L 504 535 L 533 511 L 555 472 L 567 419 L 567 387 L 561 349 L 551 317 L 535 282 L 511 247 L 488 225 L 455 202 L 425 190 L 387 188 L 363 193 L 344 204 L 319 223 L 297 259 M 346 201 L 292 224 M 131 170 L 160 184 L 179 205 L 191 228 L 199 257 L 200 288 L 194 328 L 189 377 L 197 430 L 212 473 L 230 508 L 254 534 L 277 550 L 315 566 L 346 573 L 363 574 L 479 544 M 410 478 L 421 439 L 424 406 L 414 362 L 396 330 L 370 303 L 346 290 L 337 328 L 338 372 L 347 403 L 364 435 L 387 463 L 411 478 L 435 489 L 457 491 L 478 482 L 506 459 L 519 431 L 523 408 L 522 376 L 513 333 L 501 307 L 474 273 L 437 251 L 403 247 L 378 256 L 360 272 L 348 290 M 328 292 L 322 323 L 326 366 L 333 399 L 354 444 L 374 468 L 408 494 L 440 506 L 483 499 L 514 471 L 536 431 L 538 394 L 534 353 L 518 309 L 498 277 L 467 248 L 437 234 L 403 232 L 375 241 L 348 259 L 332 282 L 326 294" />
<glyph unicode="Z" glyph-name="Z" horiz-adv-x="700" d="M 142 318 L 144 602 L 557 602 L 555 318 L 142 318 M 112 272 L 99 280 L 95 293 L 99 628 L 104 641 L 114 647 L 120 647 L 580 644 L 595 638 L 601 627 L 601 292 L 595 279 L 577 271 L 113 274 L 88 260 L 80 247 L 33 99 L 42 70 L 58 58 L 73 53 L 635 56 L 655 64 L 666 82 L 666 97 L 615 254 L 604 266 L 577 273 M 665 99 L 33 100 M 121 143 L 144 231 L 555 229 L 582 144 L 121 144 M 183 145 L 185 230 M 251 230 L 251 145 M 317 145 L 319 228 M 384 230 L 383 145 M 448 145 L 447 229 M 512 228 L 514 144 M 568 189 L 135 187" />

<glyph unicode="[" glyph-name="bracketleft" horiz-adv-x="306" d="M 261 -123 L 129 -123 L 129 699 L 261 699" />
<glyph unicode="\" glyph-name="backslash" horiz-adv-x="384" d="M 41 706 L 340 -142" />
<glyph unicode="]" glyph-name="bracketright" horiz-adv-x="306" d="M 44.1 -120 L 176 -120 L 176 702 L 44.1 702" />
<glyph unicode="^" glyph-name="asciicircum" horiz-adv-x="504" d="M 101 312 L 249 674 L 400 302" />
<glyph unicode="_" glyph-name="underscore" horiz-adv-x="529" d="M 28.4 -81.9 L 501 -81.9" />
<glyph unicode="`" glyph-name="grave" horiz-adv-x="558" d="M 220 709 L 312 586" />

<glyph unicode="a" glyph-name="a" horiz-adv-x="700" d="M 217 422 L 466 658 L 686 438 L 452 192 L 219 422 L 237 373 L 245 324 L 244 279 L 227 252 L 182 221 L 119 197 L 74 157 L 51 107 L 39 62 L 50 32 L 75 15 L 116 17 L 147 35 L 198 69 L 229 117 L 262 186 L 291 225 L 331 229 L 370 225 L 450 193 M 525 271 L 295 496 M 379 576 L 352 532 L 341 494 L 351 466 L 387 474 L 413 484 L 455 503 L 461 498 L 459 483 L 446 458 L 430 426 L 441 399 L 463 394 L 485 404 L 507 404 L 517 396 L 514 375 L 508 352 L 517 335 L 537 327 L 563 330 L 595 343 M 80 111 L 71 87 L 74 65 L 89 53 L 111 49 L 133 59 L 140 73 L 140 88 L 133 110 L 118 117 L 98 120 L 81 111" />
<glyph unicode="b" glyph-name="b" horiz-adv-x="700" d="M 289 27 L 212 80 L 170 151 L 153 228 L 159 312 L 177 379 L 206 446 L 196 379 L 214 326 L 239 298 L 268 285 L 247 372 L 255 484 L 276 544 L 303 584 L 346 631 L 378 654 L 364 628 L 363 582 L 370 551 L 387 509 L 410 478 L 440 457 L 459 498 L 470 514 L 488 529 L 508 543 L 530 551 L 509 533 L 499 517 L 494 493 L 493 455 L 507 399 L 543 363 L 568 326 L 583 282 L 591 216 L 584 171 L 571 135 L 544 96 L 505 57 L 476 35 L 441 18 L 481 72 L 487 98 L 490 125 L 484 159 L 475 192 L 464 226 L 464 195 L 456 167 L 448 154 L 433 143 L 427 139 L 435 162 L 439 194 L 436 230 L 429 264 L 408 304 L 392 323 L 368 341 L 372 318 L 368 296 L 360 277 L 345 252 L 330 237 L 312 219 L 290 192 L 279 179 L 263 153 L 257 133 L 254 101 L 259 83 L 267 60 L 278 44 L 290 29" />
<glyph unicode="c" glyph-name="c" horiz-adv-x="700" d="M 134 178 L 77 205 L 61 229 L 52 256 L 51 288 L 57 311 L 74 337 L 93 353 L 119 365 L 146 368 L 148 407 L 169 454 L 188 482 L 217 506 L 244 519 L 280 530 L 319 531 L 352 522 L 386 504 L 413 484 L 428 468 L 440 454 L 462 458 L 492 456 L 514 444 L 533 428 L 549 410 L 558 389 L 560 373 L 559 364 L 609 354 L 626 338 L 644 317 L 652 292 L 654 262 L 648 236 L 637 216 L 608 194 L 585 181 L 568 178 L 132 179" />
<glyph unicode="d" glyph-name="d" horiz-adv-x="700" d="M 340 468 L 341 561 M 427 431 L 492 500 M 463 346 L 552 346 M 425 260 L 492 196 M 339 225 L 340 133 M 188 193 L 255 260 M 218 348 L 126 348 M 255 433 L 189 499 M 340 430 L 370 425 L 395 409 L 410 391 L 423 362 L 420 333 L 411 308 L 394 287 L 379 274 L 354 265 L 331 262 L 311 269 L 286 281 L 272 299 L 256 329 L 256 355 L 263 382 L 277 404 L 298 421 L 318 430 L 342 432" />
<glyph unicode="e" glyph-name="e" horiz-adv-x="700" d="M 260 498 L 440 499 L 440 453 L 259 453 L 260 498 M 304 452 L 306 386 L 394 388 L 396 452 M 315 385 L 316 360 M 385 387 L 385 361 M 304 363 L 395 362 L 395 316 L 302 315 L 305 363 M 328 339 L 327 317 M 353 341 L 351 317 M 374 340 L 373 316 M 338 315 L 339 225 M 363 315 L 361 227 M 339 291 L 363 313 M 339 269 L 365 293 M 340 248 L 363 268 M 339 229 L 361 251 M 213 227 L 487 226 L 487 203 L 213 204 L 213 228 M 397 242 L 444 290 M 428 327 L 379 244 M 321 242 L 271 325 M 256 288 L 304 242" />
<glyph unicode="f" glyph-name="f" horiz-adv-x="700" d="M 223 184 L 324 184 M 327 194 L 177 252 M 261 273 L 331 203 M 340 210 L 280 355 M 273 372 L 268 387 M 351 213 L 349 522 M 417 357 L 361 211 M 370 205 L 439 273 M 448 286 L 459 295 M 374 194 L 521 257 M 477 184 L 376 184 M 347 186 L 348 181 L 352 180 L 356 185 L 352 188 L 348 189 L 345 185 L 349 179 L 354 182 L 355 187 L 351 187 L 350 183 L 353 183" />
<glyph unicode="g" glyph-name="g" horiz-adv-x="700" d="M 169 499 L 180 496 L 186 488 L 192 474 L 191 462 L 195 486 L 202 495 L 214 499 L 202 503 L 195 513 L 191 531 L 187 508 L 182 502 L 170 499 M 488 464 L 501 472 L 506 482 L 507 499 L 511 476 L 520 468 L 529 464 L 513 459 L 508 447 L 507 433 L 503 457 L 487 466 M 207 368 L 191 371 L 181 378 L 177 387 L 181 399 L 196 403 L 257 416 L 303 422 L 350 420 L 400 421 L 451 415 L 488 409 L 515 398 L 525 388 L 521 380 L 511 374 L 496 366 L 486 366 M 512 379 L 486 390 L 458 397 L 411 401 L 351 404 L 293 403 L 245 394 L 203 387 L 190 381 L 185 374 M 259 354 L 240 359 L 231 363 L 231 370 L 238 374 L 279 381 L 322 384 L 373 383 L 422 380 L 454 374 L 468 369 L 470 365 L 466 361 L 458 358 L 436 355 M 402 353 L 380 351 L 334 351 L 303 352 L 295 354 M 280 362 L 228 196 L 260 207 L 294 212 L 333 213 L 381 213 L 429 206 L 459 202 L 467 196 L 470 192 L 463 188 L 450 183 L 369 176 L 324 177 L 261 182 L 236 189 L 227 200 M 470 195 L 419 361 M 419 419 L 404 448 L 385 461 L 364 470 L 335 472 L 317 467 L 302 459 L 285 442 L 279 428 L 278 419 M 349 457 L 363 454 L 375 448 L 384 442 L 389 436 M 419 501 L 418 516 M 264 496 L 263 481" />
<glyph unicode="h" glyph-name="h" horiz-adv-x="700" d="M 132 289 L 567 287 L 512 26 L 187 25 L 132 289 M 144 231 L 556 229 M 349 290 L 351 652 M 347 477 L 375 543 L 413 574 L 463 592 L 496 599 L 497 541 L 470 483 L 425 451 L 351 442 M 352 392 L 336 428 L 309 463 L 281 481 L 239 498 L 202 504 L 210 445 L 236 394 L 264 367 L 300 353 L 329 349 L 348 350 M 349 526 L 290 540 L 249 564 L 223 595 L 211 631 L 204 675 L 238 668 L 271 654 L 299 639 L 328 616 L 346 587 L 352 577" />
<glyph unicode="i" glyph-name="i" horiz-adv-x="700" d="M 71 649 L 148 601 L 148 589 L 141 584 L 130 580 L 71 648 M 145 605 L 157 606 L 162 603 L 164 590 L 160 580 L 148 569 L 134 564 L 125 567 L 123 575 L 124 586 M 129 563 L 318 404 L 339 405 L 348 419 L 353 428 L 351 436 L 163 603 M 330 455 L 348 462 L 367 462 L 378 457 L 383 446 L 384 430 L 373 409 L 353 390 L 327 375 L 313 371 L 301 375 L 291 383 L 289 397 L 292 409 L 296 421 M 298 377 L 325 354 L 355 361 L 377 374 L 394 397 L 404 420 L 405 435 L 380 458 M 404 413 L 491 332 L 484 307 L 473 296 L 459 289 L 445 286 L 435 288 L 348 358 M 446 285 L 552 207 L 572 216 L 578 226 L 582 240 L 492 327 M 581 230 L 597 216 L 591 203 L 583 200 L 570 198 L 561 209 M 586 197 L 591 200 L 601 189 L 611 168 L 608 155 L 598 131 L 574 120 L 557 119 L 538 125 L 512 145 L 428 205 L 372 253 L 342 269 L 322 276 L 299 272 L 278 258 L 269 245 L 265 228 L 265 211 L 279 190 L 293 178 L 309 173 L 335 157 L 350 145 L 365 119 L 368 97 L 363 85" />
<glyph unicode="j" glyph-name="j" horiz-adv-x="700" d="M 349 685 L 377 684 L 407 680 L 443 671 L 480 657 L 532 629 L 569 601 L 615 550 L 654 490 L 670 445 L 682 384 L 681 335 L 675 269 L 662 231 L 645 195 L 621 157 L 579 109 L 533 72 L 492 48 L 445 29 L 378 17 L 314 20 L 257 33 L 200 52 L 149 85 L 105 126 L 61 184 L 35 243 L 18 316 L 17 365 L 24 424 L 44 485 L 71 537 L 101 571 L 144 616 L 187 645 L 250 671 L 300 683 L 353 685" />
<glyph unicode="k" glyph-name="k" horiz-adv-x="700" d="M 24 247 L 126 283 L 188 293 L 262 301 L 329 301 L 375 301 L 361 313 L 362 328 L 369 342 L 376 344 L 387 340 L 388 333 L 394 347 L 404 353 L 410 352 L 416 349 L 421 342 M 423 302 L 418 368 L 407 367 L 443 449 L 497 365 L 573 357 L 534 434 L 485 445 M 481 412 L 484 470 M 470 419 L 474 470 L 480 470 M 471 450 L 441 455 M 544 422 L 541 450 L 547 463 L 553 464 L 563 457 L 565 450 L 561 437 L 554 428 L 573 432 L 583 425 L 581 414 L 573 409 L 582 407 L 585 400 L 574 392 L 583 385 L 593 371 L 584 354 L 593 346 L 597 333 L 592 329 L 586 321 L 593 317 L 602 308 L 606 299 L 604 293 L 602 287 L 550 294 L 546 358 M 513 358 L 516 314 L 527 313 L 525 357 M 489 360 L 483 295 L 427 298 M 416 367 L 495 364 M 440 354 L 439 310 L 447 310 L 446 352 L 440 352 M 455 351 L 468 350 L 469 311 L 456 312 L 457 350 M 242 285 L 238 364 L 246 364 L 249 290 L 243 288 M 239 346 L 226 350 L 218 367 L 224 383 L 216 389 L 210 403 L 214 411 L 212 422 L 215 431 L 219 437 L 220 445 L 225 453 L 232 453 L 236 461 L 244 460 L 252 451 L 257 449 L 262 442 L 260 436 L 269 436 L 272 430 L 270 422 L 264 416 L 273 412 L 276 404 L 273 390 L 268 383 L 272 377 L 271 367 L 266 360 L 258 352 L 254 346 L 253 345 L 240 345 L 255 359 L 258 369 L 250 377 L 240 373 L 249 387 L 249 400 L 237 392 L 235 405 L 239 420 L 248 431 L 236 447 L 237 455 M 646 263 L 564 263 L 485 249 L 408 227 L 345 201 L 308 188 L 260 150 L 210 110 M 307 188 L 280 221 L 247 248 L 228 263 M 355 207 L 333 230 L 297 259 L 271 271 M 419 231 L 364 275 L 338 285 M 498 254 L 452 269 L 407 281 M 564 264 L 498 284 M 103 187 L 99 258 L 105 256 L 109 192 M 161 204 L 159 266 L 163 269 L 166 204 M 220 211 L 216 272 L 225 274 L 224 213 M 227 243 L 232 245 L 229 257 L 227 257 M 217 257 L 168 254 L 168 242 L 216 246 M 160 255 L 106 240 L 108 229 L 159 240 M 101 239 L 55 226 L 58 212 L 102 228 M 52 156 L 119 189 L 161 200 L 201 205 L 240 205 M 73 98 L 168 145 L 228 173 L 276 190 L 259 220 M 50 261 L 49 278 L 62 284 L 58 295 L 62 305 L 68 311 L 82 312 L 91 306 L 96 316 L 109 318 L 120 313 L 131 311 L 154 319 L 170 316 L 182 311 L 193 301 L 194 296 L 159 301 L 153 304 L 133 303 L 127 298 L 125 292 L 120 290 L 108 298 L 104 298 L 91 294 L 88 291 L 82 283 L 78 274 L 68 271 L 58 266 L 58 259 M 603 288 L 654 280" />
<glyph unicode="l" glyph-name="l" horiz-adv-x="700" d="M 228 573 L 231 538 L 497 541 L 497 577 L 167 575 L 167 168 L 497 167 L 494 244 L 167 249 M 230 248 L 231 540 M 268 538 L 302 484 L 409 483 L 446 540 M 423 501 L 454 501 L 454 513 L 525 513 L 532 508 L 533 500 L 531 494 L 523 489 L 454 489 L 454 498 L 455 503 M 331 485 L 333 448 L 379 447 L 381 480 M 373 445 L 369 431 L 361 426 L 351 427 L 343 431 L 338 447 M 291 403 L 418 406 L 399 368 L 309 368 L 293 403 M 308 368 L 284 271 L 286 260 L 297 251 L 307 248 M 409 249 L 421 259 L 424 268 L 421 285 L 398 369 L 434 366 L 450 360 L 465 341 L 469 326 L 466 302 L 451 291 L 432 287 L 420 289 M 368 222 L 465 222 L 467 190 L 365 189 L 369 221 M 300 222 L 318 215 L 319 204 L 309 193 L 289 191 L 282 205 L 287 217 L 301 220 M 238 216 L 251 208 L 251 199 L 243 193 L 222 195 L 215 208 L 226 214 L 238 215" />
<glyph unicode="m" glyph-name="m" horiz-adv-x="700" d="M 10 585 L 22 603 L 38 613 L 55 616 L 650 614 L 675 597 L 684 577 L 688 550 L 688 125 L 679 103 L 665 89 L 644 85 L 45 88 L 26 98 L 13 116 L 10 133 L 10 585 M 275 556 L 424 558 L 424 447 L 274 450 L 271 557 M 179 556 L 202 555 L 213 543 L 211 524 L 198 506 L 185 506 L 166 517 L 162 535 L 169 547 L 181 556 M 97 558 L 112 549 L 120 536 L 113 516 L 100 506 L 86 503 L 73 511 L 61 531 L 69 545 L 80 558 L 96 559 M 92 461 L 107 456 L 117 441 L 116 425 L 104 409 L 84 407 L 66 420 L 64 440 L 70 453 L 83 459 L 92 462 M 182 459 L 198 460 L 211 452 L 217 436 L 213 422 L 200 406 L 183 408 L 166 417 L 164 434 L 169 449 L 183 460 M 268 408 L 297 407 M 327 408 L 363 405 M 395 407 L 429 406 M 494 404 L 493 429 L 473 432 L 471 447 L 478 462 L 493 472 L 508 467 L 514 453 L 507 436 L 490 427 M 492 472 L 491 562 M 558 563 L 559 524 L 583 524 L 580 505 L 532 504 L 533 525 L 558 525 M 559 503 L 559 402 M 624 401 L 624 431 L 598 433 L 596 467 L 658 468 L 652 432 L 625 432 M 624 469 L 623 562 M 688 350 L 9 353 M 67 352 L 65 202 L 74 189 L 87 186 L 101 191 L 109 204 L 111 215 L 109 352 M 86 187 L 85 89 M 174 86 L 174 354 M 238 349 L 240 199 L 250 187 L 262 183 L 277 187 L 286 200 L 284 214 L 283 352 M 328 351 L 326 209 L 331 193 L 340 186 L 353 187 L 366 196 L 372 208 L 373 218 L 370 351 M 437 351 L 437 84 M 350 84 L 350 187 M 262 183 L 262 88 M 524 89 L 525 186 M 612 189 L 612 85 M 635 350 L 636 205 L 628 195 L 611 188 L 598 197 L 589 218 L 590 348 M 546 352 L 550 202 L 538 188 L 521 185 L 510 193 L 502 213 L 503 352" />
<glyph unicode="n" glyph-name="n" horiz-adv-x="700" d="M 148 480 L 233 428 L 327 593 L 301 623 L 267 632 L 248 629 L 232 622 L 220 610 L 149 480 M 318 636 L 418 636 L 447 622 L 458 606 L 477 565 L 515 586 L 479 458 L 356 491 L 392 511 L 337 611 L 326 626 L 313 635 L 321 637 M 452 398 L 544 450 L 616 326 L 618 289 L 607 265 L 591 249 L 577 245 L 543 242 L 454 397 M 590 231 L 540 141 L 521 120 L 504 113 L 443 116 L 447 72 L 355 163 L 445 260 L 446 220 L 555 216 L 576 221 L 588 228 M 320 114 L 319 219 L 137 219 L 123 190 L 123 168 L 131 147 L 144 128 L 159 120 L 176 115 L 320 116 M 108 187 L 111 213 L 123 239 L 173 318 L 206 294 L 172 422 L 47 390 L 85 368 L 59 322 L 55 297 L 58 279 L 62 266 L 107 190" />
<glyph unicode="o" glyph-name="o" horiz-adv-x="700" d="M 143 467 L 135 505 L 232 533 L 224 557 L 230 569 L 390 611 L 404 605 L 412 578 L 504 601 L 516 565 L 144 467 M 195 431 L 515 434 L 480 100 L 464 85 L 233 89 L 222 99 L 191 425 L 194 433 M 249 403 L 285 404 L 282 148 L 245 148 L 250 402 M 336 403 L 370 403 L 368 148 L 336 150 L 337 404 M 422 404 L 455 404 L 455 148 L 422 150 L 421 404" />
<glyph unicode="p" glyph-name="p" horiz-adv-x="700" d="M 259 385 L 326 383 L 325 365 L 315 347 L 327 316 L 326 95 L 300 79 L 282 80 L 267 87 L 261 97 L 257 315 L 270 339 L 270 354 L 260 363 L 258 383 L 261 384 M 280 400 L 311 401 L 317 420 L 331 436 L 371 476 L 357 479 L 353 483 L 321 450 L 306 450 L 301 462 L 304 474 L 318 487 L 335 503 L 328 512 L 327 521 L 284 478 L 282 445 L 282 399 M 401 454 L 425 457 L 425 499 L 431 533 L 425 555 L 411 571 L 392 578 L 370 588 L 355 602 L 340 623 L 325 653 L 312 634 L 309 605 L 324 567 L 340 553 L 339 531 L 351 509 L 367 496 L 383 492 L 394 486 L 400 453 M 371 530 L 384 517 L 398 522 L 406 534 L 399 547 L 387 557 L 377 551 L 369 542 L 373 530 M 440 564 L 430 598 L 407 634 L 381 654 L 365 663 L 348 664 L 337 661 L 350 645 L 370 612 L 389 602 L 410 594 L 427 583 L 439 564 M 376 437 L 430 437 L 443 427 L 448 414 L 445 394 L 435 355 L 432 292 L 434 200 L 437 111 L 438 92 L 419 78 L 393 78 L 374 98 L 372 257 L 375 338 L 383 384 L 387 403 L 375 418 L 377 437" />
<glyph unicode="q" glyph-name="q" horiz-adv-x="700" d="M 288 644 L 306 586 L 349 573 L 379 601 L 367 661 L 379 664 L 406 645 L 427 613 L 430 584 L 423 563 L 406 539 L 392 518 L 382 495 L 375 468 L 380 413 L 389 104 L 370 83 L 350 81 L 332 85 L 324 95 L 314 112 L 316 132 L 329 454 L 325 479 L 306 511 L 288 533 L 265 571 L 262 604 L 271 625 L 288 642" />
<glyph unicode="r" glyph-name="r" horiz-adv-x="700" d="M 313 639 L 315 604 L 297 602 L 299 570 L 304 554 L 320 546 L 285 543 L 268 530 L 256 511 L 252 490 L 246 536 L 261 580 L 286 629 L 314 641 M 397 641 L 395 615 L 411 606 L 416 589 L 412 568 L 408 555 L 395 548 L 384 532 L 360 531 L 333 529 L 310 515 L 289 502 L 281 481 L 288 459 L 289 433 L 283 390 M 324 387 L 277 392 L 248 393 L 233 384 L 234 365 L 246 347 L 231 306 L 205 271 L 191 214 L 191 163 L 213 93 L 233 58 L 270 55 L 315 59 L 276 203 L 276 253 L 290 293 L 314 350 L 321 384 L 334 414 L 358 432 L 396 436 L 437 457 L 456 485 L 464 514 L 462 561 L 449 595 L 434 627 L 416 639 L 398 642 M 341 497 L 360 503 L 375 497 L 380 481 L 370 469 L 355 466 L 343 476 L 337 491 L 341 499 M 376 407 L 401 411 L 423 421 L 437 429 L 438 391 M 376 407 L 381 383 L 451 392 L 471 390 L 477 377 L 473 348 L 469 328 L 494 289 L 518 246 L 519 210 L 518 166 L 508 121 L 494 74 L 484 55 L 434 52 L 406 58 L 430 162 L 436 235 L 418 294 L 393 351 L 383 384" />
<glyph unicode="s" glyph-name="s" horiz-adv-x="700" d="M 127 490 L 151 533 L 185 565 L 224 579 L 249 577 L 300 551 L 320 511 L 334 461 L 329 416 L 308 366 L 277 335 L 218 321 L 185 330 L 155 357 L 135 395 L 124 442 L 125 475 L 128 491 M 247 542 L 273 529 L 294 503 L 300 479 M 219 321 L 199 266 L 256 269 L 236 323 M 227 268 L 254 236 L 250 216 L 231 198 L 223 187 L 225 168 L 235 157 L 250 148 M 437 60 L 414 87 L 421 115 L 429 130 L 437 149 L 430 167 L 417 187 M 405 237 L 393 190 L 448 188 L 438 239 M 437 237 L 414 238 L 396 244 L 369 256 L 342 275 L 318 306 L 302 336 L 299 356 M 320 514 L 337 540 L 362 560 L 394 574 L 429 578 L 467 568 L 505 544 L 531 508 L 548 462 L 554 416 L 547 371 L 529 315 L 502 280 L 469 251 L 451 243 L 437 237 M 521 432 L 506 476 L 490 500 L 475 516 L 452 526 L 438 529" />
<glyph unicode="t" glyph-name="t" horiz-adv-x="700" d="M 110 383 L 624 382 L 624 338 L 597 328 L 586 308 L 584 259 L 572 221 L 553 200 L 517 185 L 462 182 L 427 189 L 399 210 L 380 234 L 365 245 L 360 239 L 340 218 L 302 192 L 261 184 L 217 187 L 173 202 L 154 233 L 147 283 L 140 317 L 121 331 L 110 338 L 108 382 L 223 552 L 243 563 L 264 557 L 275 543 L 272 521 L 257 534 L 227 521 L 196 461 L 171 384 M 555 385 L 501 527 L 488 537 L 478 529 L 463 522 L 451 534 L 463 557 L 482 565 L 507 560 L 522 544 L 541 514 L 624 383 M 414 339 L 448 348 L 514 350 L 533 340 L 559 315 L 557 271 L 543 236 L 508 219 L 468 227 L 429 240 L 400 276 L 398 312 L 414 339 M 338 328 L 320 340 L 283 347 L 239 350 L 199 343 L 177 313 L 175 276 L 193 233 L 225 230 L 285 232 L 318 248 L 336 272 L 340 298 L 339 326" />
<glyph unicode="u" glyph-name="u" horiz-adv-x="700" d="M 139 278 L 86 301 L 83 315 L 86 330 L 150 440 L 200 497 L 265 554 L 336 600 L 385 625 L 400 621 L 410 605 L 590 129 L 585 102 L 572 94 L 551 102 L 411 165 L 409 131 L 402 102 L 388 98 L 373 103 L 362 115 L 360 137 L 358 185 L 280 219 L 281 141 L 274 125 L 260 121 L 244 126 L 236 138 L 235 155 L 235 239 L 140 280 L 176 347 L 209 395 L 256 449 L 310 497 L 367 540 L 416 567 L 422 571 M 381 487 L 400 477 L 414 457 L 415 446 M 301 433 L 291 412 L 291 393 L 297 382 M 361 396 L 384 402 L 397 391 L 405 365 L 397 350 L 384 342 L 358 345 L 345 358 L 343 380 L 360 396 M 258 344 L 234 329 L 233 312 L 240 295 L 249 286 L 266 284 L 284 290 L 291 308 L 288 328 L 279 340 L 260 345 M 324 267 L 339 259 L 352 258 L 365 259 L 380 266 M 440 296 L 447 319 L 447 331 L 440 350 M 466 262 L 481 261 L 495 251 L 497 238 L 494 219 L 486 206 L 469 202 L 448 205 L 438 221 L 437 240 L 443 254 L 449 260 L 464 263" />
<glyph unicode="v" glyph-name="v" horiz-adv-x="700" d="M 157 396 L 181 407 L 209 412 L 229 411 L 255 400 L 269 388 L 285 366 L 293 348 L 298 322 L 298 294 L 293 272 L 280 252 L 256 234 L 227 222 L 199 220 L 168 229 L 142 250 L 125 273 L 117 302 L 119 334 L 127 363 L 146 391 L 157 398 M 202 346 L 218 346 L 230 340 L 238 325 L 238 310 L 229 295 L 214 291 L 199 294 L 189 306 L 188 322 L 191 336 L 200 344 L 205 346 M 226 341 L 247 366 L 269 392 L 307 420 L 346 439 L 399 459 L 463 473 M 475 442 L 444 428 L 415 407 L 395 384 L 377 355 L 363 335 L 384 326 L 386 313 L 375 301 L 361 297 L 348 305 L 338 319 L 344 335 L 353 340 L 366 337 M 354 340 L 289 511 M 321 511 L 232 513 L 232 500 L 259 501 L 281 512 M 238 316 L 340 320 M 363 298 L 363 258 M 351 260 L 382 261 M 507 335 L 497 325 L 495 315 L 500 305 L 510 303 L 524 304 L 527 315 L 524 325 L 517 334 L 505 336 L 462 480 L 458 500 L 461 518 L 462 528 L 457 536 L 433 544 L 397 554 M 484 408 L 506 414 L 535 411 L 557 402 L 581 377 L 595 351 L 601 312 L 596 284 L 585 261 L 569 241 L 545 230 L 516 222 L 480 225 L 450 244 L 428 279 L 420 319 L 426 354 L 438 381 L 458 401 L 486 410" />
<glyph unicode="w" glyph-name="w" horiz-adv-x="700" d="M 287 368 L 318 400 L 347 415 L 388 422 L 423 416 L 462 392 L 488 359 L 501 321 L 504 295 L 493 252 L 478 219 L 450 188 L 398 168 L 342 174 L 305 194 L 278 230 L 261 279 L 262 319 L 271 345 L 286 367 M 369 349 L 404 348 L 423 335 L 433 309 L 437 289 L 424 262 L 402 249 L 374 248 L 343 256 L 334 283 L 329 307 L 339 325 L 346 338 L 369 347 M 438 473 L 608 469 L 630 459 L 635 441 L 639 418 L 640 150 L 632 127 L 620 113 L 609 106 L 591 104 L 172 107 M 215 430 L 213 350 L 200 325 L 181 314 L 165 306 L 154 292 L 144 277 L 146 257 L 145 136 L 129 114 L 105 107 L 84 111 L 71 130 L 62 150 L 60 441 L 70 459 L 80 467 L 97 472 L 313 472 M 125 473 L 125 510 L 136 520 L 211 520 L 224 510 L 223 473 M 244 474 L 265 483 L 275 496 L 281 510 L 291 536 L 302 549 L 316 559 L 336 561 L 442 558 L 459 544 L 468 525 L 478 503 L 493 483 L 504 476 L 521 472 M 538 472 L 541 502 L 551 510 L 595 510 L 602 500 L 601 470 M 574 204 L 587 197 L 593 189 L 591 170 L 582 162 L 569 157 L 553 162 L 542 174 L 542 190 L 548 201 L 562 205 L 575 206 M 144 426 L 157 415 L 162 397 L 159 382 L 149 371 L 135 369 L 120 370 L 109 380 L 105 393 L 107 408 L 114 419 L 125 425 L 139 427 L 147 424" />
<glyph unicode="x" glyph-name="x" horiz-adv-x="700" d="M 579 452 L 559 416 L 532 381 L 502 346 L 463 299 M 563 349 L 581 358 L 593 352 L 595 337 L 588 323 L 574 315 L 562 321 L 555 332 L 557 344 L 565 352 M 522 373 L 517 401 L 503 432 L 482 465 L 467 486 L 454 497 M 488 455 L 502 485 L 508 507 L 502 516 L 494 522 L 473 515 L 448 492 L 362 421 L 304 354 L 249 294 L 220 245 L 201 212 L 195 193 L 198 185 L 205 180 L 216 181 L 228 186 M 220 242 L 248 207 L 273 188 L 292 179 L 327 171 L 370 172 L 407 181 L 449 202 L 478 230 L 497 258 L 512 288 L 517 311 M 512 428 L 544 477 L 560 506 L 573 545 L 576 568 L 571 583 L 563 590 L 553 596 L 535 595 L 502 583 L 460 556 L 372 486 L 310 426 L 233 338 L 182 266 L 162 235 L 142 193 L 133 162 L 134 137 L 141 123 L 149 116 L 163 114 L 178 115 L 199 125 L 239 150 L 282 183 M 338 207 L 363 230 L 388 258 M 412 412 L 371 374 L 333 334 L 301 297 L 280 267 M 107 206 L 128 248 L 153 284 L 179 315 L 186 323 M 196 285 L 186 317 L 183 359 L 188 401 L 200 437 L 215 465 L 235 488 L 270 516 L 306 529 L 342 536 L 376 534 M 304 482 L 268 458 L 248 431 L 235 406 L 228 385 M 135 461 L 119 476 L 117 502 L 124 523 L 138 531 L 161 531 L 175 521 L 180 504 L 182 489 L 176 472 L 163 459 L 146 457 L 133 463 L 125 470 M 140 418 L 148 420 L 151 414 L 144 408 L 137 413 L 142 418 M 393 572 L 403 582 L 411 568 L 401 564 L 396 574 L 405 574 M 465 398 L 458 413 L 473 411 L 477 402 L 465 398 L 469 411 M 420 239 L 430 232 L 418 217 L 415 232 L 422 240 L 421 225 M 376 140 L 385 146 L 390 137 L 381 129 L 373 141 L 388 137 M 426 144 L 439 156 L 452 157 L 465 149 L 464 135 L 455 124 L 441 121 L 431 128 L 426 138 L 429 149" />
<glyph unicode="y" glyph-name="y" horiz-adv-x="700" d="M 116 435 L 134 443 L 174 438 L 377 351 L 405 324 L 415 286 L 423 249 L 414 204 L 404 184 L 389 175 L 364 172 L 334 182 L 294 193 L 264 221 L 242 251 L 233 265 L 205 244 L 180 248 L 152 256 L 126 281 L 109 313 L 106 339 L 106 397 L 110 427 L 116 435 M 137 328 L 144 307 L 152 295 L 166 285 L 177 282 M 116 438 L 138 459 L 161 466 L 190 463 L 223 455 L 389 387 L 419 369 L 438 347 L 446 321 L 451 297 L 450 251 L 446 236 L 437 213 L 407 190 M 440 219 L 510 285 L 545 338 L 561 376 L 564 407 L 561 489 L 545 512 L 524 527 L 477 543 L 431 552 L 373 552 L 286 534 L 225 510 L 175 484 L 148 465 M 212 500 L 242 488 L 260 475 L 280 457 L 299 445 L 327 436 L 360 434 L 397 433 L 429 427 L 459 410 L 473 383 L 479 366 L 480 354 M 444 335 L 480 358 L 501 374 L 521 397 L 547 424 L 556 449 L 562 467 M 548 432 L 540 451 L 525 462 L 504 469 L 441 489 L 403 492 L 362 490 L 331 484 L 306 474 L 290 466 L 278 459 M 448 487 L 446 548 M 485 539 L 488 475 M 526 463 L 527 525 M 487 266 L 491 286 L 489 304 L 484 320" />
<glyph unicode="z" glyph-name="z" horiz-adv-x="700" d="M 123 190 L 146 148 L 213 244 L 270 329 L 308 407 L 329 459 L 330 487 M 331 459 L 427 458 L 428 488 M 428 456 L 467 373 L 504 309 L 558 219 L 612 151 L 627 193 M 613 149 L 146 150 M 225 153 L 256 196 L 293 251 L 319 299 L 326 320 L 375 238 L 415 175 L 435 153 M 283 153 L 305 199 L 315 244 L 327 317 M 511 152 L 450 239 L 400 319 L 352 415 L 330 460 M 558 224 L 556 551 M 518 529 L 557 553 L 594 528 M 502 467 L 557 504 L 608 467 M 499 407 L 558 445 L 612 412 M 513 368 L 557 397 L 626 345 M 531 327 L 557 344 L 628 294 M 560 286 L 627 235 M 270 555 L 286 551 L 310 535 L 320 553 L 338 557 M 198 532 L 224 538 L 236 520 L 234 498 L 219 491 L 124 490 L 117 505 L 118 524 L 126 534 L 141 536 L 149 531 L 153 549 L 164 555 L 179 557 L 197 548 L 199 530 M 111 227 L 173 274 M 178 194 L 177 429 M 214 404 L 176 431 L 135 404 M 119 345 L 177 384 L 230 342 M 112 283 L 178 327 L 210 303" />

<glyph unicode="{" glyph-name="braceleft" horiz-adv-x="309" d="M 265 -123 L 217 -126 L 167 -101 L 145 -50.4 L 158 214 L 145 249 L 120 274 L 97.6 284 L 56.7 287 L 107 299 L 145 321 L 151 362 L 148 627 L 158 671 L 202 699 L 265 699" />
<glyph unicode="|" glyph-name="bar" horiz-adv-x="255" d="M 120 -220 L 120 740" />
<glyph unicode="}" glyph-name="braceright" horiz-adv-x="309" d="M 44.1 -123 L 104 -120 L 148 -97.6 L 161 -37.8 L 154 208 L 167 255 L 192 277 L 230 290 L 246 290 L 208 302 L 173 315 L 158 350 L 158 441 L 167 630 L 139 684 L 97.6 702 L 47.2 702" />
<glyph unicode="~" glyph-name="asciitilde" horiz-adv-x="504" d="M 75.6 324 L 110 365 L 151 384 L 202 384 L 249 343 L 302 302 L 334 290 L 372 296 L 400 321 L 428 350" />
<glyph unicode="&#xa0;" glyph-name="nbspace" horiz-adv-x="378" />
<glyph unicode="&#xa1;" glyph-name="exclamdown" horiz-adv-x="280" d="M 142 18.9 L 142 501 M 164 624 L 164 674 L 117 674 L 117 624 L 164 624" />
<glyph unicode="&#xa2;" glyph-name="cent" horiz-adv-x="255" d="M 413 72.4 L 362 34.6 L 287 18.9 L 217 28.4 L 145 75.6 L 104 142 L 88.2 220 L 88.2 302 L 113 378 L 164 438 L 224 472 L 290 482 L 346 472 L 384 454 L 400 435 M 246 -220 L 246 740" />
<glyph unicode="&#xa5;" glyph-name="yen" horiz-adv-x="472" d="M 44.1 655 L 236 274 L 236 22.1 L 236 277 L 425 652 M 151 198 L 356 198 M 151 324 L 356 324" />
<glyph unicode="&#xa6;" glyph-name="brokenbar" horiz-adv-x="76.5" d="M 206 -66.1 L 206 222 M 206 406 L 206 695" />
<glyph unicode="&#xa8;" glyph-name="dieresis" horiz-adv-x="567" d=" M 186 702 L 186 652 L 237 652 L 237 702 L 186 702 M 450 702 L 450 652 L 500 652 L 500 702 L 450 702" />
<glyph unicode="&#xa9;" glyph-name="copyright" horiz-adv-x="677" d="M 334 22.1 L 416 34.6 L 498 88.2 L 554 173 L 583 284 L 583 387 L 567 472 L 536 542 L 485 608 L 416 649 L 346 662 L 287 652 L 220 627 L 158 573 L 110 482 L 94.5 410 L 91.4 302 L 104 220 L 135 145 L 180 85.1 L 230 44.1 L 284 25.2 L 334 22.1 M 449 206 L 416 181 L 372 165 L 328 172 L 287 194 L 255 232 L 239 271 L 235 331 L 239 386 L 260 432 L 291 466 L 328 484 L 369 487 L 405 479 L 430 463 L 438 454" />
<glyph unicode="&#xaa;" glyph-name="ordfeminine" horiz-adv-x="260" d="M 216 813 L 249 832 L 277 839 L 306 843 L 328 835 L 346 817 L 359 792 L 361 758 L 361 652 L 361 610 L 359 652 L 339 638 L 317 622 L 291 611 L 263 606 L 239 614 L 220 627 L 206 647 L 206 677 L 217 701 L 243 721 L 268 731 L 298 740 L 326 745 L 343 747 L 358 747" />
<glyph unicode="&#xab;" glyph-name="guillemotleft" horiz-adv-x="274" d="M 145 -7.56 L 34 212 L 140 423 M 271 -7.56 L 160 212 L 266 423" />
<glyph unicode="&#xae;" glyph-name="registered" horiz-adv-x="677" d="M 334 22.1 L 416 34.6 L 498 88.2 L 554 173 L 583 284 L 583 387 L 567 472 L 536 542 L 485 608 L 416 649 L 346 662 L 287 652 L 220 627 L 158 573 L 110 482 L 94.5 410 L 91.4 302 L 104 220 L 135 145 L 180 85.1 L 230 44.1 L 284 25.2 L 334 22.1 M 254 167 L 254 482 L 359 482 L 384 474 L 413 460 L 433 428 L 433 402 L 428 372 L 410 345 L 386 331 L 348 321 L 255 321 L 345 321 L 436 167" />
<glyph unicode="&#xb0;" glyph-name="degree" horiz-adv-x="244" d="M 242 574 L 266 577 L 291 593 L 308 619 L 317 652 L 317 683 L 312 709 L 302 730 L 287 749 L 266 762 L 246 765 L 228 763 L 208 755 L 189 739 L 175 712 L 170 690 L 169 658 L 173 633 L 182 610 L 196 593 L 211 580 L 227 575 L 242 574" />
<glyph unicode="&#xb1;" glyph-name="plusminus" horiz-adv-x="401" d="M 499 20.2 L 663 20.2 M 653 633 L 653 287 M 499 461 L 814 461" />
<glyph unicode="&#xb2;" glyph-name="twosuperior" horiz-adv-x="252" d="M 195 877 L 216 898 L 241 914 L 272 921 L 299 917 L 328 902 L 345 879 L 353 844 L 351 814 L 335 778 L 307 737 L 272 695 L 241 662 L 213 630 L 198 614 L 376 614" />
<glyph unicode="&#xb3;" glyph-name="threesuperior" horiz-adv-x="249" d="M 202 887 L 227 906 L 260 920 L 287 920 L 315 912 L 339 893 L 350 868 L 354 838 L 346 811 L 320 791 L 290 775 L 265 770 L 246 770 L 269 770 L 295 767 L 320 758 L 346 737 L 359 718 L 364 696 L 362 673 L 358 654 L 342 632 L 320 617 L 291 610 L 261 610 L 233 617 L 205 633 L 187 649" />
<glyph unicode="&#xb4;" glyph-name="acute" horiz-adv-x="378" d=" M 336 772 L 210 602" />
<glyph unicode="&#xb7;" glyph-name="middot" horiz-adv-x="328" d="M 193 389 L 193 329 L 253 329 L 253 389 L 193 389" />
<glyph unicode="&#xb9;" glyph-name="onesuperior" horiz-adv-x="252" d="M 290 898 L 238 896 L 291 917 L 291 614 L 213 614 L 369 614" />
<glyph unicode="&#xba;" glyph-name="ordmasculine" horiz-adv-x="244" d="M 242 574 L 266 577 L 291 593 L 308 619 L 317 652 L 317 683 L 312 709 L 302 730 L 287 749 L 266 762 L 246 765 L 228 763 L 208 755 L 189 739 L 175 712 L 170 690 L 169 658 L 173 633 L 182 610 L 196 593 L 211 580 L 227 575 L 242 574" />
<glyph unicode="&#xbb;" glyph-name="guillemotright" horiz-adv-x="319" d="M 61.7 -10.1 L 173 239 L 37.8 426 M 188 -10.1 L 299 239 L 164 426" />
<glyph unicode="&#xbc;" glyph-name="onequarter" horiz-adv-x="968" d="M 159 737 L 96.4 735 L 161 760 L 161 397 L 66.1 397 L 253 397 M 265 -78.8 L 564 772 M 677 9.45 L 677 378 L 501 132 L 739 132" />
<glyph unicode="&#xbd;" glyph-name="onehalf" horiz-adv-x="968" d="M 159 737 L 96.4 735 L 161 760 L 161 397 L 66.1 397 L 253 397 M 265 -78.8 L 564 772 M 518 335 L 542 359 L 573 378 L 610 387 L 643 382 L 677 365 L 697 336 L 707 295 L 705 259 L 686 215 L 652 166 L 610 115 L 573 75.6 L 539 37.8 L 522 18.9 L 735 18.9" />
<glyph unicode="&#xbe;" glyph-name="threequarters" horiz-adv-x="962" d="M 52.9 724 L 83.2 747 L 123 764 L 155 764 L 189 754 L 217 731 L 231 701 L 236 665 L 227 633 L 195 609 L 159 590 L 129 584 L 106 584 L 134 584 L 164 580 L 195 569 L 227 544 L 242 522 L 248 495 L 246 467 L 240 444 L 221 418 L 195 401 L 161 391 L 125 391 L 90.7 401 L 56.7 420 L 35.9 438 M 265 -78.8 L 564 772 M 677 9.45 L 677 378 L 501 132 L 739 132" />
<glyph unicode="&#xbf;" glyph-name="questiondown" horiz-adv-x="428" d="M 239 624 L 239 674 L 189 674 L 189 624 L 239 624 M 220 495 L 214 435 L 189 372 L 120 277 L 78.8 211 L 69.3 154 L 81.9 97.7 L 113 53.6 L 151 28.4 L 205 22.1 L 258 31.5 L 302 53.6 L 340 88.2" />
<glyph unicode="&#xc0;" glyph-name="Agrave" horiz-adv-x="548" d="M 41 15.8 L 277 662 L 416 255 L 132 255 L 416 255 L 501 15.8 M 148 992 L 239 869" />
<glyph unicode="&#xc1;" glyph-name="Aacute" horiz-adv-x="548" d="M 41 15.8 L 277 662 L 416 255 L 132 255 L 416 255 L 501 15.8 M 447 1000.5 L 321 830" />
<glyph unicode="&#xc2;" glyph-name="Acircumflex" horiz-adv-x="548" d="M 41 15.8 L 277 662 L 416 255 L 132 255 L 416 255 L 501 15.8 M 219 817 L 293 999 L 369 813" />
<glyph unicode="&#xc3;" glyph-name="Atilde" horiz-adv-x="548" d="M 41 15.8 L 277 662 L 416 255 L 132 255 L 416 255 L 501 15.8 M 181 822 L 205 851 L 234 864 L 269 864 L 302 836 L 340 807 L 362 798 L 388 803 L 408 820 L 428 840" />
<glyph unicode="&#xc4;" glyph-name="Adieresis" horiz-adv-x="548" d="M 41 15.8 L 277 662 L 416 255 L 132 255 L 416 255 L 501 15.8 M 156 923 L 156 873 L 206 873 L 206 923 L 156 923 M 398 923 L 398 873 L 449 873 L 449 923 L 398 923" />
<glyph unicode="&#xc5;" glyph-name="Aring" horiz-adv-x="548" d="M 41 15.8 L 277 662 L 416 255 L 132 255 L 416 255 L 501 15.8 M 312 857 L 336 861 L 361 877 L 378 902 L 387 936 L 387 967 L 382 992 L 372 1013.0 L 357 1032.9 L 336 1045.2 L 316 1048.9 L 298 1046.1 L 278 1038.6 L 259 1022.5 L 245 995 L 240 973 L 239 941 L 243 917 L 252 894 L 266 876 L 281 864 L 297 858 L 312 857" />
<glyph unicode="&#xc8;" glyph-name="Egrave" horiz-adv-x="539" d="M 466 31.5 L 132 31.5 L 132 356 L 410 356 L 132 356 L 132 643 L 454 643 M 143 992 L 235 869" />
<glyph unicode="&#xc9;" glyph-name="Eacute" horiz-adv-x="539" d="M 466 31.5 L 132 31.5 L 132 356 L 410 356 L 132 356 L 132 643 L 454 643 M 433 974 L 307 804" />
<glyph unicode="&#xca;" glyph-name="Ecircumflex" horiz-adv-x="539" d="M 466 31.5 L 132 31.5 L 132 356 L 410 356 L 132 356 L 132 643 L 454 643 M 217 817 L 291 999 L 366 813" />
<glyph unicode="&#xcb;" glyph-name="Edieresis" horiz-adv-x="539" d="M 466 31.5 L 132 31.5 L 132 356 L 410 356 L 132 356 L 132 643 L 454 643 M 146 923 L 146 873 L 196 873 L 196 923 L 146 923 M 399 923 L 399 873 L 450 873 L 450 923 L 399 923" />
<glyph unicode="&#xcc;" glyph-name="Igrave" horiz-adv-x="268" d="M 132 18.9 L 132 652 M 7.88 992 L 99.2 869" />
<glyph unicode="&#xcd;" glyph-name="Iacute" horiz-adv-x="268" d="M 132 18.9 L 132 652 M 289 998 L 163 828" />
<glyph unicode="&#xce;" glyph-name="Icircumflex" horiz-adv-x="268" d="M 132 18.9 L 132 652 M 102 817 L 176 999 L 251 813" />
<glyph unicode="&#xcf;" glyph-name="Idieresis" horiz-adv-x="268" d="M 132 18.9 L 132 652 M 18.4 923 L 18.4 873 L 68.8 873 L 68.8 923 L 18.4 923 M 256 923 L 256 873 L 306 873 L 306 923 L 256 923" />
<glyph unicode="&#xd0;" glyph-name="Eth" horiz-adv-x="627" d="M 56.7 261 L 261 261 M 132 31.5 L 132 646 L 309 646 L 381 627 L 435 598 L 472 561 L 517 488 L 532 406 L 532 356 L 529 290 L 520 214 L 495 161 L 450 94.5 L 381 53.6 L 315 34.6 L 265 31.5 L 135 31.5" />
<glyph unicode="&#xd1;" glyph-name="Ntilde" horiz-adv-x="655" d="M 126 22.1 L 126 649 L 148 649 L 523 22.1 L 523 652 M 206 822 L 230 851 L 259 864 L 294 864 L 327 836 L 365 807 L 387 798 L 413 803 L 433 820 L 453 840" />
<glyph unicode="&#xd2;" glyph-name="Ograve" horiz-adv-x="677" d="M 334 22.1 L 416 34.6 L 498 88.2 L 554 173 L 583 284 L 583 387 L 567 472 L 536 542 L 485 608 L 416 649 L 346 662 L 287 652 L 220 627 L 158 573 L 110 482 L 94.5 410 L 91.4 302 L 104 220 L 135 145 L 180 85.1 L 230 44.1 L 284 25.2 L 334 22.1 M 213 992 L 304 869" />
<glyph unicode="&#xd3;" glyph-name="Oacute" horiz-adv-x="677" d="M 334 22.1 L 416 34.6 L 498 88.2 L 554 173 L 583 284 L 583 387 L 567 472 L 536 542 L 485 608 L 416 649 L 346 662 L 287 652 L 220 627 L 158 573 L 110 482 L 94.5 410 L 91.4 302 L 104 220 L 135 145 L 180 85.1 L 230 44.1 L 284 25.2 L 334 22.1 M 502 962 L 376 792" />
<glyph unicode="&#xd4;" glyph-name="Ocircumflex" horiz-adv-x="677" d="M 334 22.1 L 416 34.6 L 498 88.2 L 554 173 L 583 284 L 583 387 L 567 472 L 536 542 L 485 608 L 416 649 L 346 662 L 287 652 L 220 627 L 158 573 L 110 482 L 94.5 410 L 91.4 302 L 104 220 L 135 145 L 180 85.1 L 230 44.1 L 284 25.2 L 334 22.1 M 251 817 L 325 999 L 401 813" />
<glyph unicode="&#xd5;" glyph-name="Otilde" horiz-adv-x="677" d="M 334 22.1 L 416 34.6 L 498 88.2 L 554 173 L 583 284 L 583 387 L 567 472 L 536 542 L 485 608 L 416 649 L 346 662 L 287 652 L 220 627 L 158 573 L 110 482 L 94.5 410 L 91.4 302 L 104 220 L 135 145 L 180 85.1 L 230 44.1 L 284 25.2 L 334 22.1 M 211 822 L 235 851 L 264 864 L 299 864 L 332 836 L 370 807 L 392 798 L 418 803 L 438 820 L 458 840" />
<glyph unicode="&#xd6;" glyph-name="Odieresis" horiz-adv-x="677" d="M 334 22.1 L 416 34.6 L 498 88.2 L 554 173 L 583 284 L 583 387 L 567 472 L 536 542 L 485 608 L 416 649 L 346 662 L 287 652 L 220 627 L 158 573 L 110 482 L 94.5 410 L 91.4 302 L 104 220 L 135 145 L 180 85.1 L 230 44.1 L 284 25.2 L 334 22.1 M 212 923 L 212 873 L 262 873 L 262 923 L 212 923 M 472 923 L 472 873 L 522 873 L 522 923 L 472 923" />
<glyph unicode="&#xd7;" glyph-name="multiply" horiz-adv-x="435" d="M 50.4 9.45 L 365 485 M 69.3 485 L 387 9.45" />
<glyph unicode="&#xd8;" glyph-name="Oslash" horiz-adv-x="677" d="M 334 22.1 L 416 34.6 L 498 88.2 L 554 173 L 583 284 L 583 387 L 567 472 L 536 542 L 485 608 L 416 649 L 346 662 L 287 652 L 220 627 L 158 573 L 110 482 L 94.5 410 L 91.4 302 L 104 220 L 135 145 L 180 85.1 L 230 44.1 L 284 25.2 L 334 22.1 M 184 -119 L 507 799" />
<glyph unicode="&#xd9;" glyph-name="Ugrave" horiz-adv-x="662" d="M 135 655 L 135 217 L 145 161 L 173 101 L 211 59.9 L 268 28.4 L 321 15.8 L 387 25.2 L 454 59.9 L 501 117 L 523 167 L 529 236 L 529 652 M 205 992 L 296 869" />
<glyph unicode="&#xda;" glyph-name="Uacute" horiz-adv-x="662" d="M 135 655 L 135 217 L 145 161 L 173 101 L 211 59.9 L 268 28.4 L 321 15.8 L 387 25.2 L 454 59.9 L 501 117 L 523 167 L 529 236 L 529 652 M 500 974 L 374 804" />
<glyph unicode="&#xdb;" glyph-name="Ucircumflex" horiz-adv-x="662" d="M 135 655 L 135 217 L 145 161 L 173 101 L 211 59.9 L 268 28.4 L 321 15.8 L 387 25.2 L 454 59.9 L 501 117 L 523 167 L 529 236 L 529 652 M 247 817 L 321 999 L 397 813" />
<glyph unicode="&#xdc;" glyph-name="Udieresis" horiz-adv-x="662" d="M 135 655 L 135 217 L 145 161 L 173 101 L 211 59.9 L 268 28.4 L 321 15.8 L 387 25.2 L 454 59.9 L 501 117 L 523 167 L 529 236 L 529 652 M 210 923 L 210 873 L 260 873 L 260 923 L 210 923 M 458 923 L 458 873 L 508 873 L 508 923 L 458 923" />
<glyph unicode="&#xdd;" glyph-name="Yacute" horiz-adv-x="472" d="M 44.1 655 L 236 274 L 236 22.1 L 236 277 L 425 652 M 399 946 L 273 776" />
<glyph unicode="&#xe0;" glyph-name="agrave" horiz-adv-x="520" d="M 117 428 L 183 466 L 239 482 L 296 488 L 340 472 L 378 438 L 403 387 L 406 318 L 406 107 L 406 22.1 L 403 107 L 362 78.8 L 318 47.2 L 268 25.2 L 211 15.8 L 164 31.5 L 126 56.7 L 97.6 97.6 L 97.6 158 L 120 205 L 170 246 L 220 265 L 280 284 L 337 293 L 372 296 L 400 296 M 165 772 L 257 649" />
<glyph unicode="&#xe1;" glyph-name="aacute" horiz-adv-x="520" d="M 117 428 L 183 466 L 239 482 L 296 488 L 340 472 L 378 438 L 403 387 L 406 318 L 406 107 L 406 22.1 L 403 107 L 362 78.8 L 318 47.2 L 268 25.2 L 211 15.8 L 164 31.5 L 126 56.7 L 97.6 97.6 L 97.6 158 L 120 205 L 170 246 L 220 265 L 280 284 L 337 293 L 372 296 L 400 296 M 391 806 L 265 636" />
<glyph unicode="&#xe2;" glyph-name="acircumflex" horiz-adv-x="520" d="M 117 428 L 183 466 L 239 482 L 296 488 L 340 472 L 378 438 L 403 387 L 406 318 L 406 107 L 406 22.1 L 403 107 L 362 78.8 L 318 47.2 L 268 25.2 L 211 15.8 L 164 31.5 L 126 56.7 L 97.6 97.6 L 97.6 158 L 120 205 L 170 246 L 220 265 L 280 284 L 337 293 L 372 296 L 400 296 M 180 644 L 254 825 L 330 639" />
<glyph unicode="&#xe3;" glyph-name="atilde" horiz-adv-x="520" d="M 117 428 L 183 466 L 239 482 L 296 488 L 340 472 L 378 438 L 403 387 L 406 318 L 406 107 L 406 22.1 L 403 107 L 362 78.8 L 318 47.2 L 268 25.2 L 211 15.8 L 164 31.5 L 126 56.7 L 97.6 97.6 L 97.6 158 L 120 205 L 170 246 L 220 265 L 280 284 L 337 293 L 372 296 L 400 296 M 152 646 L 176 675 L 205 688 L 240 688 L 273 659 L 311 631 L 333 622 L 359 626 L 379 644 L 399 664" />
<glyph unicode="&#xe4;" glyph-name="adieresis" horiz-adv-x="520" d="M 117 428 L 183 466 L 239 482 L 296 488 L 340 472 L 378 438 L 403 387 L 406 318 L 406 107 L 406 22.1 L 403 107 L 362 78.8 L 318 47.2 L 268 25.2 L 211 15.8 L 164 31.5 L 126 56.7 L 97.6 97.6 L 97.6 158 L 120 205 L 170 246 L 220 265 L 280 284 L 337 293 L 372 296 L 400 296 M 163 702 L 163 652 L 213 652 L 213 702 L 163 702 M 427 702 L 427 652 L 477 652 L 477 702 L 427 702" />
<glyph unicode="&#xe5;" glyph-name="aring" horiz-adv-x="520" d="M 117 428 L 183 466 L 239 482 L 296 488 L 340 472 L 378 438 L 403 387 L 406 318 L 406 107 L 406 22.1 L 403 107 L 362 78.8 L 318 47.2 L 268 25.2 L 211 15.8 L 164 31.5 L 126 56.7 L 97.6 97.6 L 97.6 158 L 120 205 L 170 246 L 220 265 L 280 284 L 337 293 L 372 296 L 400 296 M 242 668 L 266 672 L 291 688 L 308 713 L 317 747 L 317 778 L 312 803 L 302 824 L 287 844 L 266 856 L 246 860 L 228 857 L 208 850 L 189 833 L 175 806 L 170 784 L 169 752 L 173 728 L 182 705 L 196 687 L 211 675 L 227 669 L 242 668" />
<glyph unicode="&#xe8;" glyph-name="egrave" horiz-adv-x="504" d="M 88.2 265 L 435 265 L 435 321 L 419 394 L 372 450 L 324 482 L 258 485 L 192 466 L 135 419 L 113 372 L 88.2 312 L 81.9 249 L 97.6 173 L 126 104 L 183 47.2 L 236 22.1 L 302 15.8 L 359 31.5 L 413 59.9 M 158 772 L 249 649" />
<glyph unicode="&#xe9;" glyph-name="eacute" horiz-adv-x="504" d="M 88.2 265 L 435 265 L 435 321 L 419 394 L 372 450 L 324 482 L 258 485 L 192 466 L 135 419 L 113 372 L 88.2 312 L 81.9 249 L 97.6 173 L 126 104 L 183 47.2 L 236 22.1 L 302 15.8 L 359 31.5 L 413 59.9 M 393 771 L 267 601" />
<glyph unicode="&#xea;" glyph-name="ecircumflex" horiz-adv-x="504" d="M 88.2 265 L 435 265 L 435 321 L 419 394 L 372 450 L 324 482 L 258 485 L 192 466 L 135 419 L 113 372 L 88.2 312 L 81.9 249 L 97.6 173 L 126 104 L 183 47.2 L 236 22.1 L 302 15.8 L 359 31.5 L 413 59.9 M 176 644 L 250 825 L 326 639" />
<glyph unicode="&#xeb;" glyph-name="edieresis" horiz-adv-x="504" d="M 88.2 265 L 435 265 L 435 321 L 419 394 L 372 450 L 324 482 L 258 485 L 192 466 L 135 419 L 113 372 L 88.2 312 L 81.9 249 L 97.6 173 L 126 104 L 183 47.2 L 236 22.1 L 302 15.8 L 359 31.5 L 413 59.9 M 162 702 L 162 652 L 213 652 L 213 702 L 162 702 M 411 702 L 411 652 L 462 652 L 462 702 L 411 702" />
<glyph unicode="&#xec;" glyph-name="igrave" horiz-adv-x="252" d="M 126 15.8 L 126 479  M 31.5 772 L 123 649" />
<glyph unicode="&#xed;" glyph-name="iacute" horiz-adv-x="252" d="M 126 15.8 L 126 479  M 275 805 L 149 635" />
<glyph unicode="&#xee;" glyph-name="icircumflex" horiz-adv-x="252" d="M 126 15.8 L 126 479  M 66.1 644 L 140 825 L 216 639" />
<glyph unicode="&#xef;" glyph-name="idieresis" horiz-adv-x="252" d="M 126 15.8 L 126 479  M 31.7 702 L 31.7 652 L 82.1 652 L 82.1 702 L 31.7 702 M 290 702 L 290 652 L 340 652 L 340 702 L 290 702" />
<glyph unicode="&#xf1;" glyph-name="ntilde" horiz-adv-x="558" d="M 126 15.8 L 126 482 L 126 369 L 170 413 L 211 450 L 243 469 L 290 482 L 321 485 L 369 472 L 397 454 L 419 422 L 438 378 L 438 15.8 M 161 646 L 185 675 L 214 688 L 249 688 L 282 659 L 320 631 L 342 622 L 368 626 L 388 644 L 408 664" />
<glyph unicode="&#xf2;" glyph-name="ograve" horiz-adv-x="561" d="M 287 18.9 L 290 18.9 L 353 34.6 L 413 75.6 L 450 139 L 466 208 L 469 274 L 460 334 L 438 387 L 406 428 L 362 466 L 315 482 L 271 485 L 220 476 L 173 447 L 132 400 L 110 356 L 91.4 290 L 91.4 239 L 97.6 180 L 113 126 L 151 75.6 L 195 40.9 L 243 22.1 L 287 18.9 M 186 772 L 277 649" />
<glyph unicode="&#xf3;" glyph-name="oacute" horiz-adv-x="561" d="M 287 18.9 L 290 18.9 L 353 34.6 L 413 75.6 L 450 139 L 466 208 L 469 274 L 460 334 L 438 387 L 406 428 L 362 466 L 315 482 L 271 485 L 220 476 L 173 447 L 132 400 L 110 356 L 91.4 290 L 91.4 239 L 97.6 180 L 113 126 L 151 75.6 L 195 40.9 L 243 22.1 L 287 18.9 M 424 765 L 298 595" />
<glyph unicode="&#xf4;" glyph-name="ocircumflex" horiz-adv-x="561" d="M 287 18.9 L 290 18.9 L 353 34.6 L 413 75.6 L 450 139 L 466 208 L 469 274 L 460 334 L 438 387 L 406 428 L 362 466 L 315 482 L 271 485 L 220 476 L 173 447 L 132 400 L 110 356 L 91.4 290 L 91.4 239 L 97.6 180 L 113 126 L 151 75.6 L 195 40.9 L 243 22.1 L 287 18.9 M 191 644 L 265 825 L 340 639" />
<glyph unicode="&#xf5;" glyph-name="otilde" horiz-adv-x="561" d="M 287 18.9 L 290 18.9 L 353 34.6 L 413 75.6 L 450 139 L 466 208 L 469 274 L 460 334 L 438 387 L 406 428 L 362 466 L 315 482 L 271 485 L 220 476 L 173 447 L 132 400 L 110 356 L 91.4 290 L 91.4 239 L 97.6 180 L 113 126 L 151 75.6 L 195 40.9 L 243 22.1 L 287 18.9 M 162 646 L 186 675 L 215 688 L 250 688 L 283 659 L 320 631 L 343 622 L 369 626 L 389 644 L 409 664" />
<glyph unicode="&#xf6;" glyph-name="odieresis" horiz-adv-x="561" d="M 287 18.9 L 290 18.9 L 353 34.6 L 413 75.6 L 450 139 L 466 208 L 469 274 L 460 334 L 438 387 L 406 428 L 362 466 L 315 482 L 271 485 L 220 476 L 173 447 L 132 400 L 110 356 L 91.4 290 L 91.4 239 L 97.6 180 L 113 126 L 151 75.6 L 195 40.9 L 243 22.1 L 287 18.9 M 192 702 L 192 652 L 243 652 L 243 702 L 192 702 M 438 702 L 438 652 L 488 652 L 488 702 L 438 702" />
<glyph unicode="&#xf7;" glyph-name="divide" horiz-adv-x="737" d="M 350 545 L 350 495 L 400 495 L 400 545 L 350 545 M 350 230 L 350 180 L 400 180 L 400 230 L 350 230 M 128 356 L 588 356" />
<glyph unicode="&#xf8;" glyph-name="oslash" horiz-adv-x="561" d="M 287 18.9 L 290 18.9 L 353 34.6 L 413 75.6 L 450 139 L 466 208 L 469 274 L 460 334 L 438 387 L 406 428 L 362 466 L 315 482 L 271 485 L 220 476 L 173 447 L 132 400 L 110 356 L 91.4 290 L 91.4 239 L 97.6 180 L 113 126 L 151 75.6 L 195 40.9 L 243 22.1 L 287 18.9 M 185 -55.1 L 395 540" />
<glyph unicode="&#xf9;" glyph-name="ugrave" horiz-adv-x="554" d="M 425 476 L 425 18.9 L 425 139 L 391 97.6 L 350 56.7 L 293 25.2 L 239 15.8 L 183 31.5 L 145 63 L 123 104 L 120 183 L 120 476 M 183 772 L 274 649" />
<glyph unicode="&#xfa;" glyph-name="uacute" horiz-adv-x="554" d="M 425 476 L 425 18.9 L 425 139 L 391 97.6 L 350 56.7 L 293 25.2 L 239 15.8 L 183 31.5 L 145 63 L 123 104 L 120 183 L 120 476 M 425 761 L 299 591" />
<glyph unicode="&#xfb;" glyph-name="ucircumflex" horiz-adv-x="554" d="M 425 476 L 425 18.9 L 425 139 L 391 97.6 L 350 56.7 L 293 25.2 L 239 15.8 L 183 31.5 L 145 63 L 123 104 L 120 183 L 120 476 M 189 644 L 263 825 L 339 639" />
<glyph unicode="&#xfc;" glyph-name="udieresis" horiz-adv-x="554" d="M 425 476 L 425 18.9 L 425 139 L 391 97.6 L 350 56.7 L 293 25.2 L 239 15.8 L 183 31.5 L 145 63 L 123 104 L 120 183 L 120 476 M 192 702 L 192 652 L 243 652 L 243 702 L 192 702 M 431 702 L 431 652 L 482 652 L 482 702 L 431 702" />
<glyph unicode="&#xfd;" glyph-name="yacute" horiz-adv-x="460" d="M 53.5 479 L 243 3.15 M 406 476 L 211 -78.8 L 189 -126 L 158 -161 L 120 -183 L 53.5 -183 M 366 795 L 240 625" />
<glyph unicode="&#xff;" glyph-name="ydieresis" horiz-adv-x="460" d="M 53.5 479 L 243 3.15 M 406 476 L 211 -78.8 L 189 -126 L 158 -161 L 120 -183 L 53.5 -183 M 135 702 L 135 652 L 185 652 L 185 702 L 135 702 M 394 702 L 394 652 L 445 652 L 445 702 L 394 702" />
<glyph unicode="&#x2013;" glyph-name="endash" horiz-adv-x="491" d="M 85.1 261 L 392 261" />
<glyph unicode="&#x2014;" glyph-name="emdash" horiz-adv-x="655" d="M 113 261 L 523 261" />
<glyph unicode="&#x201c;" glyph-name="quotedblleft" horiz-adv-x="326" d="M 128 695 L 169 584 M 269 695 L 310 584" />
<glyph unicode="&#x201d;" glyph-name="quotedblright" horiz-adv-x="326" d="M 126 695 L 85 584 M 268 695 L 227 584" />
<glyph unicode="&#x2039;" glyph-name="guilsinglleft" horiz-adv-x="183" d="M 145 -7.56 L 34 212 L 140 423" />
<glyph unicode="&#x203a;" glyph-name="guilsinglright" horiz-adv-x="213" d="M 61.7 -10.1 L 173 239 L 37.8 426" />
<glyph unicode="&#x20ac;" glyph-name="Euro" horiz-adv-x="589" d="M 520 97.6 L 454 47.2 L 365 15.8 L 277 28.4 L 195 72.4 L 132 148 L 101 227 L 91.4 346 L 101 457 L 142 548 L 205 617 L 277 652 L 359 658 L 432 643 L 482 611 L 498 592 M 56.7 198 L 261 198 M 56.7 324 L 261 324" />
<glyph unicode="&#x0178;" glyph-name="Ydieresis" horiz-adv-x="472" d="M 44.1 655 L 236 274 L 236 22.1 L 236 277 L 425 652 M 113 923 L 113 873 L 163 873 L 163 923 L 113 923 M 366 923 L 366 873 L 417 873 L 417 923 L 366 923" />
<glyph unicode="&#x102;" glyph-name="Abreve" horiz-adv-x="548" d="M 41 15.8 L 277 662 L 416 255 L 132 255 L 416 255 L 501 15.8 M454 1064C454 1064 476.355 894.292 306 894C135.645 893.708 155 1066 155 1066" />
<glyph unicode="&#x114;" glyph-name="Ebreve" horiz-adv-x="539" d="M 466 31.5 L 132 31.5 L 132 356 L 410 356 L 132 356 L 132 643 L 454 643 M451 1064C451 1064 473.355 894.292 303 894C132.645 893.708 152 1066 152 1066" />
<glyph unicode="&#x11E;" glyph-name="Gbreve" horiz-adv-x="624" d="M 346 315 L 520 315 L 520 81.9 L 479 53.6 L 391 22.1 L 328 18.9 L 265 31.5 L 208 63 L 142 139 L 97.6 233 L 88.2 343 L 101 450 L 142 545 L 208 617 L 274 649 L 350 662 L 432 649 L 482 621 L 517 592 M478 1064C478 1064 500.355 894.292 330 894C159.645 893.708 179 1066 179 1066" />
<glyph unicode="&#x12C;" glyph-name="Ibreve" horiz-adv-x="268" d="M 132 18.9 L 132 652 M325 1064C325 1064 347.355 894.292 177 894C6.64453 893.708 26 1066 26 1066" />
<glyph unicode="&#x14E;" glyph-name="Obreve" horiz-adv-x="677" d="M 334 22.1 L 416 34.6 L 498 88.2 L 554 173 L 583 284 L 583 387 L 567 472 L 536 542 L 485 608 L 416 649 L 346 662 L 287 652 L 220 627 L 158 573 L 110 482 L 94.5 410 L 91.4 302 L 104 220 L 135 145 L 180 85.1 L 230 44.1 L 284 25.2 L 334 22.1 M495 1064C495 1064 517.355 894.292 347 894C176.645 893.708 196 1066 196 1066" />
<glyph unicode="&#x16C;" glyph-name="Ubreve" horiz-adv-x="662" d="M 135 655 L 135 217 L 145 161 L 173 101 L 211 59.9 L 268 28.4 L 321 15.8 L 387 25.2 L 454 59.9 L 501 117 L 523 167 L 529 236 L 529 652 M490 1064C490 1064 512.355 894.292 342 894C171.645 893.708 191 1066 191 1066" />
<glyph unicode="&#x103;" glyph-name="abreve" horiz-adv-x="520" d="M 117 428 L 183 466 L 239 482 L 296 488 L 340 472 L 378 438 L 403 387 L 406 318 L 406 107 L 406 22.1 L 403 107 L 362 78.8 L 318 47.2 L 268 25.2 L 211 15.8 L 164 31.5 L 126 56.7 L 97.6 97.6 L 97.6 158 L 120 205 L 170 246 L 220 265 L 280 284 L 337 293 L 372 296 L 400 296 M445 864C445 864 467.355 694.292 297 694C126.645 693.708 146 866 146 866" />
<glyph unicode="&#x115;" glyph-name="ebreve" horiz-adv-x="504" d="M 88.2 265 L 435 265 L 435 321 L 419 394 L 372 450 L 324 482 L 258 485 L 192 466 L 135 419 L 113 372 L 88.2 312 L 81.9 249 L 97.6 173 L 126 104 L 183 47.2 L 236 22.1 L 302 15.8 L 359 31.5 L 413 59.9 M440 864C440 864 462.355 694.292 292 694C121.645 693.708 141 866 141 866" />
<glyph unicode="&#x11F;" glyph-name="gbreve" horiz-adv-x="510" d="M 170 40.9 L 123 -3.15 L 91.4 -56.7 L 85 -113 L 129 -161 L 202 -192 L 287 -202 L 362 -183 L 438 -132 L 466 -85 L 463 -31.5 L 435 18.9 L 365 37.8 L 173 37.8 L 132 66.1 L 113 110 L 123 151 L 176 211 L 211 189 L 265 180 L 331 202 L 378 246 L 400 299 L 400 362 L 375 419 L 356 444 L 312 472 L 463 472 L 312 472 L 265 482 L 192 476 L 142 435 L 113 378 L 110 315 L 123 265 L 148 233 L 176 208 M442 864C442 864 464.355 694.292 294 694C123.645 693.708 143 866 143 866" />
<glyph unicode="&#x12D;" glyph-name="ibreve" horiz-adv-x="252" d="M 126 15.8 L 126 479  M360 864C360 864 382.355 694.292 212 694C41.6445 693.708 61 866 61 866" />
<glyph unicode="&#x14F;" glyph-name="obreve" horiz-adv-x="561" d="M 287 18.9 L 290 18.9 L 353 34.6 L 413 75.6 L 450 139 L 466 208 L 469 274 L 460 334 L 438 387 L 406 428 L 362 466 L 315 482 L 271 485 L 220 476 L 173 447 L 132 400 L 110 356 L 91.4 290 L 91.4 239 L 97.6 180 L 113 126 L 151 75.6 L 195 40.9 L 243 22.1 L 287 18.9 M458 864C458 864 480.355 694.292 310 694C139.645 693.708 159 866 159 866" />
<glyph unicode="&#x16D;" glyph-name="ubreve" horiz-adv-x="554" d="M 425 476 L 425 18.9 L 425 139 L 391 97.6 L 350 56.7 L 293 25.2 L 239 15.8 L 183 31.5 L 145 63 L 123 104 L 120 183 L 120 476 M456 864C456 864 478.355 694.292 308 694C137.645 693.708 157 866 157 866" />
<glyph unicode="&#x106;" glyph-name="Cacute" horiz-adv-x="589" d="M 520 97.6 L 454 47.2 L 365 15.8 L 277 28.4 L 195 72.4 L 132 148 L 101 227 L 91.4 346 L 101 457 L 142 548 L 205 617 L 277 652 L 359 658 L 432 643 L 482 611 L 498 592 M 464 957 L 338 787" />
<glyph unicode="&#x107;" glyph-name="cacute" horiz-adv-x="472" d="M 413 72.4 L 362 34.6 L 287 18.9 L 217 28.4 L 145 75.6 L 104 142 L 88.2 220 L 88.2 302 L 113 378 L 164 438 L 224 472 L 290 482 L 346 472 L 384 454 L 400 435 M 368 782 L 242 612" />
<glyph unicode="&#x110;" glyph-name="Dcroat" horiz-adv-x="627" d="M 56.7 261 L 261 261 M 132 31.5 L 132 646 L 309 646 L 381 627 L 435 598 L 472 561 L 517 488 L 532 406 L 532 356 L 529 290 L 520 214 L 495 161 L 450 94.5 L 381 53.6 L 315 34.6 L 265 31.5 L 135 31.5" />
<glyph unicode="&#x111;" glyph-name="dcroat" horiz-adv-x="567" d="M 340 639 L 545 639 M 438 715 L 438 22.1 L 438 117 L 394 72.4 L 334 31.5 L 274 15.8 L 224 25.2 L 173 47.2 L 123 101 L 91.4 173 L 85 261 L 107 365 L 161 444 L 236 482 L 296 488 L 359 466 L 400 441 L 441 403" />
<glyph unicode="&#x10C;" glyph-name="Ccaron" horiz-adv-x="589" d="M 520 97.6 L 454 47.2 L 365 15.8 L 277 28.4 L 195 72.4 L 132 148 L 101 227 L 91.4 346 L 101 457 L 142 548 L 205 617 L 277 652 L 359 658 L 432 643 L 482 611 L 498 592 M 391 951 L 332 806 L 272 955" />
<glyph unicode="&#x10D;" glyph-name="ccaron" horiz-adv-x="472" d="M 413 72.4 L 362 34.6 L 287 18.9 L 217 28.4 L 145 75.6 L 104 142 L 88.2 220 L 88.2 302 L 113 378 L 164 438 L 224 472 L 290 482 L 346 472 L 384 454 L 400 435 M 330 775 L 271 630 L 210 779" />
<glyph unicode="&#x160;" glyph-name="Scaron" horiz-adv-x="545" d="M 78.8 107 L 132 63 L 183 37.8 L 246 25.2 L 318 22.1 L 397 53.6 L 450 101 L 469 164 L 466 220 L 432 277 L 359 324 L 230 381 L 158 428 L 120 479 L 117 542 L 142 608 L 214 652 L 284 662 L 350 655 L 400 630 L 447 595 M 357 951 L 298 806 L 238 955" />
<glyph unicode="&#x161;" glyph-name="scaron" horiz-adv-x="428" d="M 66.1 78.8 L 123 40.9 L 186 22.1 L 236 15.8 L 299 37.8 L 346 75.6 L 362 132 L 350 189 L 293 236 L 214 268 L 142 299 L 101 340 L 91.4 387 L 107 432 L 158 476 L 220 485 L 284 472 L 337 441 M 284 775 L 224 630 L 164 779" />
<glyph unicode="&#x17D;" glyph-name="Zcaron" horiz-adv-x="561" d="M 101 649 L 479 649 L 78.8 28.4 L 491 28.4 M 360 951 L 301 806 L 241 955" />
<glyph unicode="&#x17E;" glyph-name="zcaron" horiz-adv-x="425" d="M 78.8 466 L 359 466 L 63 31.5 L 381 31.5 M 283 775 L 224 630 L 163 779" />
<glyph unicode="&#xb8;" glyph-name="cedilla" horiz-adv-x="589" d="M365 15.8L352.244 -43.9029C438.734 -47.7297 405.249 -107.367 339.241 -107.367" />
<glyph unicode="&#xC6;" glyph-name="AE" horiz-adv-x="760" d="M750 16.0697L416 16.0697L416 356.946L694 356.946L416 356.946L416 658.43L738 658.43M51 15.8L407 662M412 255L188 255" />
<glyph unicode="&#xe7;" glyph-name="ccedilla" horiz-adv-x="472" d="M277.713 19.6017L268.483 -23.6662C331.07 -26.4395 306.839 -69.6599 259.073 -69.6599M413 72.4L362 34.6L287 18.9L217 28.4L145 75.6L104 142L88.2 220L88.2 302L113 378L164 438L224 472L290 482L346 472L384 454L400 435" />
<glyph unicode="&#xa3;" glyph-name="sterling" horiz-adv-x="491" d="M56.7 261L261 261M447 31.5L132 31.5L132 390.08C132 559.437 154.245 652.201 265.966 655C377.686 657.799 379.931 466.08 379.931 466.08" />
<glyph unicode="&#x15F;" glyph-name="scedilla" horiz-adv-x="428" d="M210.917 17.3677L198.161 -42.3352C284.65 -46.162 251.166 -105.799 185.158 -105.799M66.1 78.8C66.1 78.8 102.766 50.3963 123 40.9C184.246 14.7218 242.085 6.70644 299 37.8C317.514 48.0748 335.054 59.0724 346 75.6C356.946 92.1276 361.329 112.532 362 132C362.671 151.468 361.404 170.162 350 189C338.596 207.838 315.784 222.429 293 236C270.216 249.571 239.163 257.488 214 268C188.837 278.512 160.81 286.242 142 299C123.19 311.758 109.364 324.448 101 340C92.6357 355.552 90.3475 371.102 91.4 387C92.4525 402.898 96.2373 416.144 107 432C117.763 447.856 138.287 467.007 158 476C177.713 484.993 198.682 485.6 220 485C241.318 484.4 264.272 479.535 284 472C303.728 464.465 337 441 337 441" />
<glyph unicode="&#x15E;" glyph-name="Scedilla" horiz-adv-x="545" d="M265.211 21.9982L252.455 -37.7048C338.945 -41.5316 305.46 -101.169 239.452 -101.169M78.8 107C78.8 107 114.387 74.4133 132 63C149.613 51.5867 163.888 44.307 183 37.8C202.112 31.293 223.445 27.9245 246 25.2C268.555 22.4755 292.184 17.7165 318 22.1C343.816 26.4835 374.875 39.8961 397 53.6C419.125 67.3039 437.744 81.753 450 101C462.256 120.247 466.574 143.832 469 164C471.426 184.168 471.947 200.477 466 220C460.053 239.523 449.743 258.64 432 277C414.257 295.36 392.435 305.992 359 324C325.565 342.008 263.255 362.954 230 381C196.745 399.046 176.167 410.927 158 428C139.833 445.073 127.12 459.125 120 479C112.88 498.875 113.512 520 117 542C120.488 564 125.518 588.117 142 608C158.482 627.883 189.677 643.253 214 652C238.323 660.747 261.157 661.586 284 662C306.843 662.414 330.441 660.723 350 655C369.559 649.277 383.749 640.005 400 630C416.251 619.995 447 595 447 595" />
<glyph unicode="&#x130;" glyph-name="Idotaccent" horiz-adv-x="268" d="M104.392 781.214L104.392 731.214L154.792 731.214L154.792 781.214L104.392 781.214M132 18.9L132 652" />
<glyph unicode="&#xdf;" glyph-name="germandbls" horiz-adv-x="602" d="M128.918 28.2089L128.918 500.195C133.235 613.329 192.367 687.629 283.722 687.629C375.077 687.629 405.098 638.049 405.098 574.009C405.098 496.105 297.916 438.656 297.916 367.029C297.916 268.831 507.844 311.394 507.844 168.838C507.844 26.2811 286.905 -3.21116 223.556 66.2138" />
<glyph unicode="&#xE6;" glyph-name="ae" horiz-adv-x="810" d="M408.2 265L755 265C765.272 373.498 711.124 483.943 600.273 483.943C489.421 483.943 413.007 399.468 407.228 287.65C401.45 175.832 431.338 109.459 499.113 55.9455C566.888 2.43184 662.222 15.2117 733 59.9M117 428C171.592 468.531 209.871 487.362 286.294 486.382C362.717 485.402 406.655 414.648 405.427 364.352L403 297C317.682 290.338 274.863 292.767 181.324 250.044C87.7849 207.321 58.5793 78.9262 157.529 33.9266C256.479 -11.073 328.966 51.1733 403 107L431.24 130.416" />
<glyph unicode="&#x2D8;" glyph-name="breve" horiz-adv-x="504" d="M400 464C400 464 422.355 294.292 252 294C81.6445 293.708 101 466 101 466" />
<glyph unicode="&#xc7;" glyph-name="Ccedilla" horiz-adv-x="589" d="M365 15.8L352.244 -43.9029C438.734 -47.7297 405.249 -107.367 339.241 -107.367M520 97.6L454 47.2L365 15.8L277 28.4L195 72.4L132 148L101 227L91.4 346L101 457L142 548L205 617L277 652L359 658L432 643L482 611L498 592" />
<glyph unicode="&#x131;" glyph-name="dotlessi" horiz-adv-x="252" d="M126 15.8L126 479" />
</font>
</defs>
</svg>
